<svg width="281" height="22" viewBox="0 0 281 22" fill="none" xmlns="http://www.w3.org/2000/svg">
<mask id="mask0_403_530" style="mask-type:luminance" maskUnits="userSpaceOnUse" x="0" y="0" width="79" height="22">
<path d="M78.7857 0H0.214294V22H78.7857V0Z" fill="white"/>
</mask>
<g mask="url(#mask0_403_530)">
<path d="M27.8665 18.7265L27.8389 18.7075L27.8199 18.7351C27.6846 18.9373 27.508 19.1088 27.3015 19.2381C27.1205 19.3447 26.9139 19.4001 26.7037 19.3984C26.533 19.4038 26.3634 19.3703 26.2077 19.3004C26.052 19.2306 25.9143 19.1262 25.8052 18.9952C25.5642 18.6886 25.4416 18.3059 25.4597 17.9167C25.4388 17.515 25.5558 17.1182 25.7914 16.7917C25.8919 16.6589 26.0227 16.5518 26.1729 16.4793C26.3231 16.4068 26.4885 16.371 26.6553 16.3748C26.8869 16.368 27.1131 16.4445 27.2929 16.5902C27.4823 16.7568 27.6182 16.9756 27.6834 17.219V17.2431H27.9287V17.2087L27.9011 16.1336V16.0992H27.6765L27.6678 16.1181C27.6462 16.1623 27.6149 16.2012 27.5763 16.2318C27.5483 16.2556 27.5128 16.269 27.476 16.2697C27.4553 16.2697 27.2531 16.1991 27.165 16.1715C26.9713 16.1032 26.7675 16.0676 26.562 16.0664C26.3026 16.0652 26.0465 16.1241 25.8139 16.2387C25.5761 16.3614 25.3684 16.535 25.2057 16.7469C25.0707 16.9193 24.9661 17.1133 24.8964 17.3206C24.8262 17.5318 24.7906 17.7529 24.791 17.9753C24.7846 18.2351 24.8367 18.4929 24.9435 18.73C25.0502 18.967 25.2089 19.1771 25.4078 19.3449C25.5668 19.4841 25.7509 19.5917 25.9504 19.6619C26.1575 19.734 26.3755 19.7702 26.5948 19.7688C26.8976 19.7821 27.1979 19.7079 27.4593 19.5551C27.7208 19.4022 27.9324 19.1773 28.0687 18.9074L28.0842 18.8815L28.0583 18.8626L27.8665 18.7265Z" fill="#231815"/>
<path d="M30.8608 16.1543H30.8262V16.3938H30.8608C30.9774 16.3857 31.0935 16.4146 31.1925 16.4765C31.2262 16.511 31.2519 16.5526 31.2677 16.5981C31.2836 16.6437 31.2892 16.6921 31.2841 16.7401V17.6583H29.5995V16.7401C29.5945 16.6921 29.6001 16.6437 29.6159 16.5981C29.6317 16.5526 29.6574 16.511 29.6911 16.4765C29.7917 16.4153 29.9087 16.3865 30.0263 16.3938H30.0608V16.1543H28.5645V16.3938H28.5973C28.7075 16.3874 28.8167 16.417 28.9084 16.4782C28.9401 16.5136 28.9641 16.5551 28.979 16.6001C28.9938 16.6452 28.9992 16.6928 28.9947 16.7401V19.0917C28.9994 19.1388 28.9943 19.1864 28.9798 19.2314C28.9652 19.2765 28.9415 19.3181 28.9101 19.3536C28.818 19.4152 28.7081 19.4449 28.5973 19.438H28.5645V19.6826H30.0608V19.4397H30.0263C29.9084 19.448 29.7909 19.4184 29.6911 19.3553C29.6572 19.3205 29.6315 19.2786 29.6157 19.2328C29.5998 19.187 29.5943 19.1382 29.5995 19.09V18.0098H31.2841V19.09C31.2886 19.138 31.2829 19.1864 31.2674 19.2321C31.252 19.2779 31.227 19.3198 31.1943 19.3553C31.0946 19.4172 30.9781 19.4467 30.8608 19.4397H30.8262V19.6826H32.3174V19.4414H32.2845C32.1743 19.4486 32.0649 19.4189 31.9735 19.357C31.9418 19.3216 31.9178 19.2801 31.9029 19.2351C31.8881 19.19 31.8827 19.1424 31.8871 19.0951V16.7418C31.8827 16.6946 31.8881 16.6469 31.9029 16.6019C31.9178 16.5568 31.9418 16.5153 31.9735 16.4799C32.0652 16.4187 32.1744 16.3891 32.2845 16.3955H32.3174V16.156H30.8608V16.1543Z" fill="#231815"/>
<path d="M32.8478 16.1543H32.8133V16.1888V16.361V16.3938H32.8461C32.9637 16.3869 33.0805 16.4157 33.1813 16.4765C33.2147 16.5112 33.2401 16.5528 33.2556 16.5983C33.2711 16.6439 33.2764 16.6922 33.2712 16.7401V19.09C33.2764 19.1378 33.2711 19.1862 33.2556 19.2317C33.2401 19.2773 33.2147 19.3189 33.1813 19.3536C33.0812 19.4158 32.9638 19.4447 32.8461 19.4363H32.8133V19.469V19.6413V19.6757H34.3424V19.4414H34.3079C34.1908 19.4485 34.0745 19.4196 33.9744 19.3587C33.9409 19.3238 33.9154 19.2819 33.8999 19.236C33.8844 19.1902 33.8792 19.1415 33.8845 19.0934V16.7418C33.8795 16.6938 33.8851 16.6454 33.9009 16.5998C33.9168 16.5543 33.9424 16.5128 33.9761 16.4782C34.0751 16.4161 34.1913 16.3872 34.3079 16.3955H34.3424V16.156H32.8478V16.1543Z" fill="#231815"/>
<path d="M37.4076 16.1543H37.373V16.3955H37.4076C37.5227 16.3849 37.6376 16.4168 37.7307 16.4851C37.7668 16.5239 37.7942 16.57 37.8112 16.6202C37.8282 16.6703 37.8343 16.7235 37.8292 16.7762V18.6352L35.8249 16.1664L35.8145 16.1543H34.8383V16.392H34.8694C34.9529 16.3968 35.0349 16.4167 35.1113 16.4506C35.1721 16.477 35.2259 16.5171 35.2685 16.5678V19.0624C35.2734 19.1134 35.268 19.1648 35.2525 19.2136C35.2371 19.2625 35.212 19.3077 35.1787 19.3467C35.0964 19.411 34.9926 19.4418 34.8884 19.4328H34.8383V19.6792H36.1048V19.4328H36.034C35.9281 19.4424 35.8225 19.4116 35.7385 19.3467C35.7051 19.3078 35.68 19.2625 35.6645 19.2137C35.6491 19.1648 35.6437 19.1134 35.6487 19.0624V16.8882L37.9553 19.7274L37.9657 19.7395H38.2162V16.7762C38.2119 16.7249 38.218 16.6732 38.2344 16.6243C38.2507 16.5755 38.2769 16.5304 38.3113 16.492C38.3959 16.4222 38.5041 16.3877 38.6136 16.3955H38.6482V16.156H37.4162L37.4076 16.1543Z" fill="#231815"/>
<path d="M42.4511 19.3381C42.3524 19.2528 42.2764 19.1445 42.23 19.0228L40.9428 16.175V16.1543H40.6836L40.6749 16.1733L39.3341 19.0417C39.2875 19.1509 39.2207 19.2502 39.1372 19.3346C39.0654 19.3938 38.9776 19.4304 38.8849 19.4397H38.8555V19.6809H40.1168V19.4397H40.0875C39.9806 19.4292 39.8767 19.3982 39.7816 19.3484C39.7596 19.3324 39.7419 19.311 39.7305 19.2863C39.719 19.2615 39.714 19.2343 39.716 19.2071C39.7156 19.1716 39.7202 19.1362 39.7298 19.102C39.7399 19.0596 39.7538 19.0181 39.7713 18.978L39.9441 18.5456H41.3453L41.5389 18.9763C41.5577 19.0179 41.5727 19.0612 41.5838 19.1055C41.5923 19.144 41.597 19.1832 41.5976 19.2226C41.5996 19.2518 41.5931 19.2809 41.579 19.3066C41.565 19.3322 41.5438 19.3533 41.5181 19.3674C41.4247 19.4131 41.3215 19.4355 41.2175 19.4328H41.1846V19.4656V19.6378V19.6723H42.7863V19.4414H42.7535C42.6443 19.4396 42.5385 19.4034 42.4511 19.3381ZM41.1881 18.201H40.103L40.668 16.9778L41.1881 18.201Z" fill="#231815"/>
<path d="M48.4381 18.7272L48.4104 18.7083L48.3897 18.7358C48.2544 18.9381 48.0778 19.1095 47.8713 19.2389C47.6905 19.3457 47.4837 19.4011 47.2735 19.3991C47.1029 19.4043 46.9333 19.3707 46.7777 19.3008C46.622 19.231 46.4843 19.1267 46.375 18.996C46.1332 18.6898 46.0105 18.3068 46.0295 17.9175C46.0091 17.5158 46.1261 17.1192 46.3612 16.7925C46.4618 16.6597 46.5925 16.5526 46.7427 16.4801C46.8929 16.4076 47.0583 16.3718 47.2251 16.3756C47.4566 16.3691 47.6828 16.4455 47.8627 16.5909C48.0529 16.757 48.1889 16.976 48.2532 17.2197V17.2439H48.5003V17.2094L48.4588 16.1326V16.0982H48.2411L48.2325 16.1171C48.2109 16.161 48.1803 16.1997 48.1426 16.2308C48.1136 16.2541 48.0779 16.2674 48.0407 16.2687C48.0217 16.2687 47.8247 16.2015 47.7297 16.1705C47.536 16.1022 47.3321 16.0667 47.1266 16.0654C46.8672 16.0642 46.6111 16.1232 46.3785 16.2377C46.1407 16.3605 45.9331 16.534 45.7703 16.746C45.6402 16.9208 45.5398 17.1158 45.4731 17.3231C45.4035 17.5344 45.3685 17.7554 45.3694 17.9778C45.3664 18.239 45.4188 18.4979 45.5232 18.7375C45.6306 18.9724 45.7888 19.1806 45.9863 19.3474C46.1444 19.4869 46.328 19.5945 46.5271 19.6644C46.7342 19.7366 46.9522 19.7728 47.1716 19.7712C47.4743 19.7841 47.7743 19.7097 48.0357 19.557C48.2971 19.4042 48.5088 19.1795 48.6454 18.9098L48.661 18.884L48.635 18.865L48.4381 18.7272Z" fill="#231815"/>
<path d="M49.143 16.1543H49.1016V16.3938H49.1361C49.2532 16.3866 49.3696 16.4155 49.4696 16.4765C49.5033 16.511 49.529 16.5526 49.5448 16.5981C49.5606 16.6437 49.5662 16.6921 49.5612 16.7401V19.09C49.5662 19.1379 49.5606 19.1864 49.5448 19.2319C49.529 19.2775 49.5033 19.319 49.4696 19.3536C49.3702 19.4161 49.2533 19.4451 49.1361 19.4363H49.1016V19.6826H50.6307V19.4414H50.5961C50.4786 19.4482 50.3618 19.4194 50.2609 19.3587C50.2285 19.3231 50.2039 19.2811 50.1887 19.2354C50.1735 19.1897 50.1681 19.1413 50.1728 19.0934V16.7418C50.1678 16.6938 50.1734 16.6454 50.1892 16.5998C50.205 16.5543 50.2307 16.5128 50.2644 16.4782C50.3632 16.4159 50.4795 16.3869 50.5961 16.3955H50.6307V16.156H49.1361L49.143 16.1543Z" fill="#231815"/>
<path d="M54.1848 16.187V16.1543H51.0747V16.187L51.0281 17.0398V17.076H51.2682V17.0484C51.2883 16.8781 51.3656 16.7196 51.4877 16.5988C51.6419 16.5011 51.8241 16.4569 52.006 16.473H52.3309V19.0934C52.3362 19.1418 52.3306 19.1907 52.3144 19.2366C52.2983 19.2826 52.272 19.3243 52.2376 19.3587C52.1383 19.4217 52.0214 19.4513 51.9041 19.4432H51.8661V19.6861H53.3935V19.4414H53.3589C53.2425 19.4508 53.1261 19.4224 53.0272 19.3605C52.9944 19.325 52.9695 19.283 52.954 19.2373C52.9385 19.1916 52.9329 19.1432 52.9373 19.0951V16.4782H53.2483C53.4303 16.4623 53.6124 16.5065 53.7667 16.604C53.8897 16.7239 53.9668 16.883 53.9844 17.0536V17.0812H54.2297V17.045L54.1848 16.187Z" fill="#231815"/>
<path d="M54.6566 16.1543H54.6203V16.3938H54.6531C54.7707 16.3867 54.8876 16.4155 54.9883 16.4765C55.0218 16.5112 55.0474 16.5527 55.0632 16.5982C55.079 16.6437 55.0847 16.6921 55.0799 16.7401V19.09C55.0849 19.1379 55.0793 19.1864 55.0635 19.2319C55.0477 19.2775 55.022 19.319 54.9883 19.3536C54.8887 19.4155 54.772 19.4445 54.6549 19.4363H54.6307V19.6826H56.1581V19.4414H56.1235C56.0065 19.4479 55.8903 19.4191 55.79 19.3587C55.7566 19.3238 55.7314 19.2818 55.7162 19.2359C55.7009 19.1901 55.6961 19.1414 55.7019 19.0934V16.7418C55.6965 16.694 55.7018 16.6455 55.7173 16.6C55.7329 16.5544 55.7583 16.5128 55.7918 16.4782C55.8908 16.4164 56.0069 16.3874 56.1235 16.3955H56.1581V16.156H54.6652L54.6566 16.1543Z" fill="#231815"/>
<path d="M59.7796 18.7265L59.7502 18.7075L59.7312 18.7351C59.596 18.9374 59.4193 19.1088 59.2129 19.2382C59.032 19.3449 58.8252 19.4003 58.615 19.3984C58.4444 19.4036 58.2748 19.3699 58.1192 19.3001C57.9635 19.2303 57.8258 19.126 57.7166 18.9952C57.476 18.6884 57.3534 18.3058 57.371 17.9167C57.3512 17.5152 57.4681 17.1187 57.7027 16.7917C57.8036 16.6592 57.9344 16.5524 58.0845 16.4799C58.2347 16.4075 58.3999 16.3714 58.5667 16.3748C58.7987 16.3682 59.0255 16.4446 59.2059 16.5902C59.3943 16.7572 59.529 16.9759 59.593 17.219L59.6016 17.2431H59.847V17.2087L59.8141 16.1336V16.0992H59.5964L59.5861 16.1181C59.5645 16.1619 59.5339 16.2007 59.4962 16.2318C59.4681 16.2554 59.4328 16.2688 59.396 16.2697C59.3735 16.2697 59.1558 16.1939 59.085 16.1715C58.8907 16.1032 58.6863 16.0676 58.4803 16.0664C58.2214 16.065 57.9658 16.124 57.7338 16.2387C57.4955 16.3614 57.2873 16.5349 57.1239 16.7469C56.9896 16.9204 56.8851 17.1148 56.8146 17.3224C56.745 17.533 56.71 17.7535 56.711 17.9753C56.707 18.2366 56.7594 18.4958 56.8647 18.7351C56.9728 18.9695 57.1308 19.1776 57.3278 19.345C57.4856 19.4848 57.6693 19.5925 57.8686 19.662C58.0763 19.7344 58.2949 19.7705 58.5148 19.7688C58.8173 19.7818 59.1172 19.7074 59.3783 19.5546C59.6395 19.4018 59.8508 19.177 59.9869 18.9074L60.0025 18.8815L59.9766 18.8626L59.7796 18.7265Z" fill="#231815"/>
<path d="M64.8248 17.8138C65.005 17.7619 65.1702 17.668 65.3069 17.5399C65.3769 17.471 65.432 17.3885 65.4689 17.2975C65.5057 17.2066 65.5235 17.109 65.5211 17.011C65.5264 16.8855 65.499 16.7607 65.4414 16.649C65.3839 16.5373 65.2982 16.4423 65.1928 16.3735C64.9148 16.2101 64.5939 16.1339 64.2719 16.1547H62.5786V16.3942H62.6114C62.7221 16.3883 62.8317 16.4179 62.9242 16.4786C62.9558 16.5143 62.9796 16.5562 62.9942 16.6016C63.0088 16.6469 63.0138 16.6948 63.0088 16.7422V19.0904C63.0138 19.1378 63.0088 19.1857 62.9942 19.2311C62.9796 19.2764 62.9558 19.3183 62.9242 19.354C62.8322 19.4159 62.7222 19.4456 62.6114 19.4384H62.5786V19.6831H64.3807C64.7137 19.6964 65.0418 19.5994 65.3138 19.4074C65.4285 19.3285 65.5224 19.223 65.5874 19.1C65.6524 18.9769 65.6865 18.8401 65.687 18.7011C65.6905 18.5861 65.669 18.4717 65.624 18.3659C65.5789 18.26 65.5114 18.1651 65.4261 18.0877C65.2535 17.945 65.046 17.8505 64.8248 17.8138ZM64.1164 16.4786C64.3225 16.4643 64.5278 16.5162 64.7021 16.6268C64.7668 16.678 64.8179 16.7441 64.851 16.8195C64.8841 16.8948 64.8982 16.9771 64.8922 17.0592C64.8972 17.1473 64.8808 17.2352 64.8444 17.3156C64.808 17.396 64.7527 17.4664 64.6831 17.5209C64.4976 17.6408 64.2782 17.6976 64.0576 17.6829H63.6153V16.4769L64.1164 16.4786ZM63.6153 18.0136H64.2149C64.4342 18.0014 64.6506 18.0681 64.8248 18.2014C64.8964 18.2629 64.9529 18.3398 64.9901 18.4265C65.0272 18.5131 65.044 18.607 65.039 18.7011C65.0447 18.7967 65.0253 18.8922 64.9825 18.978C64.9398 19.0638 64.8753 19.137 64.7954 19.1903C64.5736 19.3185 64.3187 19.3784 64.0628 19.3626C63.9361 19.3759 63.8082 19.3563 63.6913 19.3058C63.6585 19.2799 63.617 19.211 63.617 19.0249L63.6153 18.0136Z" fill="#231815"/>
<path d="M69.5314 19.3381C69.4337 19.2523 69.3584 19.1441 69.312 19.0228L68.0248 16.175V16.1543H67.7621L67.7535 16.1733L66.411 19.0417C66.3659 19.1517 66.2989 19.2513 66.214 19.3346C66.143 19.394 66.0557 19.4307 65.9635 19.4397H65.9324V19.6809H67.1989V19.4397H67.1712C67.0642 19.4301 66.9601 19.3991 66.8654 19.3484C66.843 19.3326 66.825 19.3113 66.8132 19.2865C66.8014 19.2618 66.7962 19.2345 66.798 19.2071C66.7977 19.1717 66.8017 19.1364 66.8101 19.102C66.8209 19.0601 66.8354 19.0192 66.8533 18.9797L67.0347 18.5525H68.436L68.6312 18.9832C68.65 19.0241 68.6645 19.0668 68.6744 19.1107C68.6842 19.1495 68.6895 19.1894 68.69 19.2295C68.692 19.2587 68.6855 19.2878 68.6714 19.3135C68.6574 19.3391 68.6362 19.3602 68.6105 19.3742C68.5165 19.4201 68.4128 19.4426 68.3081 19.4397H68.2805V19.4724V19.6447V19.6792H69.8822V19.4414H69.8355C69.7261 19.4381 69.6202 19.4021 69.5314 19.3381ZM68.2701 18.1941H67.1851L67.7501 16.9709L68.2701 18.1941Z" fill="#231815"/>
<path d="M72.6951 16.1543H72.6606V16.3955H72.6951C72.8109 16.3857 72.9263 16.4182 73.02 16.4868C73.0555 16.5256 73.0825 16.5714 73.0992 16.6213C73.1158 16.6711 73.1218 16.7239 73.1167 16.7762V18.6352L71.1125 16.1664L71.1021 16.1543H70.1259V16.392H70.157C70.2405 16.3968 70.3224 16.4167 70.3989 16.4506C70.4599 16.4766 70.5138 16.5167 70.5561 16.5678V19.0624C70.561 19.1134 70.5555 19.1648 70.5401 19.2136C70.5246 19.2625 70.4995 19.3077 70.4662 19.3467C70.3835 19.4114 70.279 19.4422 70.1742 19.4328H70.1259V19.6792H71.3906V19.4328H71.3215C71.2151 19.4422 71.1091 19.4115 71.0243 19.3467C70.9914 19.3075 70.9665 19.2622 70.951 19.2135C70.9356 19.1647 70.93 19.1134 70.9345 19.0624V16.8882L73.2429 19.7274L73.2532 19.7395H73.4969V16.7762C73.4921 16.725 73.4979 16.6733 73.5139 16.6244C73.53 16.5755 73.5559 16.5305 73.5902 16.492C73.6752 16.423 73.7832 16.3886 73.8925 16.3955H73.9271V16.156H72.6951V16.1543Z" fill="#231815"/>
<path d="M78.0047 19.4402C77.8888 19.4386 77.7759 19.4033 77.6799 19.3385C77.5472 19.2292 77.4349 19.0974 77.3482 18.9492L76.4186 17.5365L77.343 16.7112C77.435 16.6273 77.5379 16.556 77.6488 16.4993C77.7504 16.4477 77.8594 16.4122 77.9719 16.3942H78.0013V16.1582H76.4601V16.3959H76.4929C76.6009 16.3966 76.7077 16.4183 76.8074 16.4597C76.8284 16.47 76.8459 16.4863 76.8577 16.5065C76.8694 16.5268 76.8747 16.5501 76.873 16.5734C76.87 16.6121 76.8549 16.6488 76.8298 16.6785C76.7804 16.7402 76.7261 16.7978 76.6674 16.8508L75.4372 17.9585V16.7526C75.4325 16.7059 75.4375 16.6587 75.4517 16.614C75.466 16.5692 75.4893 16.5279 75.5201 16.4924C75.6128 16.432 75.7222 16.4018 75.8329 16.4063H75.8657V16.3736V16.2013V16.1668H74.397V16.4063H74.4316C74.5412 16.3999 74.6498 16.4295 74.7409 16.4907C74.7736 16.5254 74.7984 16.5668 74.8137 16.612C74.8289 16.6572 74.8341 16.7052 74.829 16.7526V19.1042C74.8334 19.1514 74.8281 19.1991 74.8132 19.2442C74.7983 19.2892 74.7743 19.3307 74.7426 19.3661C74.6512 19.428 74.5418 19.4577 74.4316 19.4505H74.397V19.6952H75.8657V19.6607V19.4884V19.4557H75.8329C75.7227 19.4623 75.6134 19.4327 75.5219 19.3713C75.4899 19.3361 75.4658 19.2946 75.4512 19.2494C75.4366 19.2043 75.4319 19.1565 75.4372 19.1094V18.4254L75.9555 17.9603L76.6639 19.037C76.7076 19.0994 76.7463 19.1651 76.7797 19.2334C76.7952 19.2652 76.8041 19.2998 76.8056 19.3351C76.8056 19.3558 76.8056 19.3833 76.7348 19.4074C76.6491 19.433 76.5598 19.444 76.4704 19.4402H76.4359V19.6865H78.0428V19.4419L78.0047 19.4402Z" fill="#231815"/>
<path d="M13.0573 6.57293V19.4596C13.6835 19.3052 14.2916 19.0851 14.8715 18.8032V4.05762C14.5648 4.19119 14.2749 4.36003 14.0076 4.56068C13.6991 4.79516 13.4523 5.10074 13.2883 5.45121C13.1243 5.8017 13.048 6.18659 13.0659 6.57293" fill="#D7000F"/>
<path d="M7.75802 4.56068C7.4907 4.35999 7.20076 4.19115 6.8941 4.05762V18.805C7.47311 19.087 8.08074 19.3065 8.7066 19.4596V6.57293C8.72483 6.18656 8.64867 5.80154 8.48462 5.45102C8.32059 5.1005 8.07361 4.79496 7.76493 4.56068" fill="#D7000F"/>
<path d="M14.4897 2.28304C13.351 1.79541 12.1247 1.54395 10.8855 1.54395C9.64619 1.54395 8.41989 1.79541 7.2812 2.28304C7.10842 2.37263 6.87689 2.54147 6.87689 2.81195C6.87689 3.29435 7.54556 3.19269 8.38356 3.85769C8.75677 4.14878 9.05736 4.52203 9.2618 4.94824C9.46622 5.37445 9.56896 5.84205 9.56194 6.31443V19.6336C10.4357 19.7598 11.3231 19.7598 12.1969 19.6336V6.31443C12.1898 5.84247 12.2923 5.37524 12.4965 4.94934C12.7006 4.52344 13.0008 4.1504 13.3735 3.85942C14.2115 3.19442 14.8819 3.29605 14.8819 2.81367C14.8819 2.55008 14.659 2.38297 14.4897 2.29682" fill="#D7000F"/>
<path d="M10.8767 20.381C8.94247 20.381 7.05162 19.809 5.44335 18.7374C3.83509 17.666 2.58161 16.1429 1.84148 14.361C1.10134 12.5791 0.907773 10.6184 1.28526 8.7268C1.66274 6.83522 2.59433 5.09774 3.96219 3.73407C5.33006 2.37043 7.07277 1.44185 8.96991 1.06579C10.8671 0.689736 12.8335 0.883088 14.6204 1.6214C16.4074 2.35969 17.9346 3.60981 19.009 5.2136C20.0833 6.81739 20.6566 8.70284 20.6563 10.6315C20.6563 11.912 20.4033 13.1799 19.9117 14.3629C19.4204 15.5458 18.7 16.6207 17.7919 17.5261C16.8837 18.4314 15.8056 19.1495 14.6191 19.6393C13.4326 20.1293 12.1609 20.3811 10.8767 20.381ZM10.8767 0C8.76791 0 6.70643 0.623528 4.95301 1.79173C3.19957 2.95994 1.83294 4.62036 1.02593 6.56301C0.218913 8.50566 0.0077628 10.6433 0.419175 12.7056C0.830587 14.7679 1.84609 16.6623 3.33726 18.1492C4.82843 19.636 6.72829 20.6485 8.79661 21.0587C10.8649 21.4689 13.0088 21.2584 14.9571 20.4538C16.9054 19.6491 18.5706 18.2864 19.7422 16.5381C20.9139 14.7897 21.5392 12.7342 21.5392 10.6315C21.5392 9.23536 21.2634 7.85289 20.7276 6.56301C20.1917 5.27314 19.4064 4.10112 18.4163 3.11389C17.4261 2.12667 16.2507 1.34356 14.9571 0.809276C13.6635 0.274991 12.277 0 10.8767 0Z" fill="#D7000F"/>
<path d="M1.75891 10.6317C1.75842 12.1636 2.14642 13.6707 2.88684 15.0129C3.62727 16.3551 4.69605 17.4888 5.99383 18.3086V11.3467C4.95713 11.3725 4.57528 11.9997 4.45951 12.2443C4.36448 12.4424 4.30228 12.6543 4.11395 12.6543C3.8133 12.6543 3.56968 11.7929 3.56968 10.7144C3.56968 9.63594 3.8133 8.77626 4.11395 8.77626C4.28673 8.77626 4.35584 8.98644 4.45951 9.18629C4.57528 9.43093 4.95713 10.0563 5.99383 10.0822V2.95312C4.69581 3.77309 3.62685 4.9071 2.88643 6.24962C2.14599 7.59214 1.75813 9.09959 1.75891 10.6317Z" fill="#D7000F"/>
<path d="M18.5034 12.2435C18.4083 12.4417 18.3479 12.6536 18.1682 12.6536C17.8658 12.6536 17.6222 11.7922 17.6222 10.7137C17.6222 9.6352 17.8658 8.77551 18.1682 8.77551C18.341 8.77551 18.4083 8.98569 18.5034 9.18554C18.6174 9.42501 18.9854 10.0314 19.9755 10.0797C19.8885 8.64342 19.4604 7.24835 18.7265 6.00945C17.9926 4.77057 16.9739 3.72334 15.7544 2.9541V18.3061C16.9483 17.5512 17.9496 16.5296 18.6793 15.3222C19.4089 14.1148 19.8467 12.7547 19.9582 11.3494C18.9751 11.4028 18.6105 12.0058 18.4965 12.2435" fill="#D7000F"/>
<path d="M28.8082 0.756216C28.2898 0.735542 28.2898 0.85786 28.2898 0.95606C28.2898 1.05426 28.3952 1.1852 28.4747 1.47291C28.5214 1.64519 28.6475 1.81747 28.7391 2.95626C28.7529 3.39902 28.7615 3.86074 28.765 4.16223C28.4194 4.19841 25.8277 4.39826 25.7344 4.40687C24.7962 4.06231 24.1189 4.12088 24.0532 4.36897C24.0186 4.49646 24.0964 4.61705 24.1828 4.83241C24.5044 5.89837 24.7458 6.98676 24.905 8.08853V8.07992C25.0588 8.99818 25.299 9.31863 25.3681 9.37548C25.4255 9.43843 25.5016 9.4813 25.5853 9.49773C25.669 9.51418 25.7558 9.50333 25.8329 9.46679C25.9469 9.40994 26.1076 9.24455 26.2268 8.81384C26.5119 8.78628 28.3002 8.67602 28.6821 8.64156C28.6233 12.4559 28.9447 13.1209 29.0069 13.3655C29.0397 13.4982 29.0967 13.574 29.1607 13.5688C29.2246 13.5637 29.3438 13.4586 29.4129 13.3414C29.527 13.1433 29.6635 12.9727 29.7844 12.0045C29.838 11.4549 29.8812 11.3843 29.9278 10.4901L29.9762 9.59772C29.9762 9.21526 29.9762 8.86036 29.9762 8.52269C31.1857 8.45377 32.5507 8.41759 32.9654 8.41759C33.5096 8.41759 33.9122 8.44171 34.0366 8.34179C34.161 8.24187 34.1075 8.00584 34.0107 7.80599C33.9537 7.68539 33.8725 7.5424 33.7239 7.28915C34.3977 6.17448 34.6517 5.16663 34.7899 4.99435L34.9385 4.85825C35.1545 4.65496 35.1908 4.59466 35.2133 4.51368C35.2357 4.43271 35.1217 4.28627 35.1217 4.28627C34.7761 3.8883 34.4133 3.69707 33.6012 3.36284L33.5113 3.34389C33.3955 3.37147 33.2835 3.41313 33.1779 3.46793C33.1036 3.51445 32.0859 3.69707 30.111 3.96583C30.1939 2.45664 30.3028 2.13102 30.3442 2.0311C30.3669 1.98087 30.3935 1.93248 30.4237 1.88638C30.4637 1.82563 30.4897 1.75679 30.4997 1.68481C30.4959 1.62146 30.4717 1.56104 30.4306 1.51253C30.2297 1.27861 29.9811 1.09014 29.7013 0.959707C29.4215 0.829279 29.117 0.759903 28.8082 0.756216ZM28.7494 5.08394C28.7494 5.47846 28.7287 7.40285 28.7253 7.71468C28.4194 7.74569 26.5154 7.8749 26.1698 7.91281C26.1387 7.56824 25.8553 5.55254 26.0558 5.40783C26.2562 5.26311 28.2657 5.08911 28.7494 5.08394ZM32.974 4.77211C32.9863 4.824 32.9915 4.87732 32.9895 4.93061C32.9923 5.13106 32.9715 5.33113 32.9273 5.5267C32.7822 6.18654 32.606 7.12031 32.504 7.23229C32.4366 7.27192 31.5606 7.39252 30.0021 7.57686C30.0021 7.18233 30.0401 5.30618 30.047 4.99263C31.8233 4.82379 32.8461 4.73593 32.974 4.77211Z" fill="#231815"/>
<path d="M43.6105 1.68336C43.3565 1.75572 43.4861 1.90561 43.4861 1.90561C44.0874 2.6447 44.5695 3.07885 45.3867 3.48543H45.5215C45.6943 3.43891 45.9949 3.27525 45.988 2.70155V2.69638C45.976 2.5313 45.9292 2.37061 45.8506 2.22484C45.772 2.07906 45.6634 1.95149 45.5319 1.85048C45.3487 1.70059 45.0515 1.60584 44.6265 1.56105H44.6092C44.2719 1.54768 43.9346 1.58899 43.6105 1.68336Z" fill="#231815"/>
<path d="M39.8784 1.72246C39.8784 1.77587 39.9026 1.87752 39.9216 2.10837C39.9257 2.21212 39.9193 2.31601 39.9026 2.41848C39.6848 3.20476 39.3739 3.96239 38.9765 4.67538C38.4121 5.64967 37.7622 6.57212 37.0344 7.43189C36.6508 7.86949 36.5696 7.9384 36.4331 8.07623C36.3208 8.18821 36.148 8.30708 36.2258 8.38461C36.269 8.46214 36.7942 8.38461 37.5009 7.91256C38.0435 7.55249 38.6361 7.01842 39.4015 6.07086C39.4413 6.42749 39.4724 6.83407 39.4914 7.29751C39.5017 7.54043 39.5069 7.77818 39.5069 8.00731C39.5069 8.08312 39.5069 8.1572 39.5069 8.22956C39.4983 8.51727 39.4827 8.78086 39.462 9.01172C39.4115 9.79646 39.2836 10.5743 39.0802 11.3341L39.0456 11.5064V11.5201C39.0957 12.3419 39.6054 12.9656 39.7868 13.0087C39.9302 13.0431 40.1324 12.7278 40.1324 12.7278C40.2447 12.5383 40.3968 12.2696 40.4417 11.5512V11.5356C40.4918 7.30613 40.5333 6.41543 40.554 6.30689V6.31378L40.5626 6.26899L40.5765 6.05191V6.02607C40.5765 5.73664 40.414 5.42136 40.084 5.06474L40.1082 5.03028C40.4054 4.63748 40.5955 4.3222 40.7302 4.12408C40.9393 3.82431 41.138 3.53832 41.3488 3.26266C41.5596 2.98701 41.5682 2.96806 41.5907 2.86297C41.5909 2.82464 41.5863 2.78642 41.5769 2.74926C41.4214 2.13077 40.8857 1.7552 40.1203 1.57258C40.1168 1.56741 39.8784 1.4985 39.8784 1.72246Z" fill="#231815"/>
<path d="M46.7448 3.7389C46.3267 3.84227 43.8784 4.2747 41.43 4.50556C41.2446 4.50053 41.0601 4.53275 40.8875 4.60031C40.8011 4.67784 40.668 4.77259 40.8702 4.97244C40.8702 4.97244 41.4335 5.47722 41.8758 5.58404H41.9639C42.2183 5.54627 42.4686 5.48572 42.7121 5.40314C42.9595 5.34477 43.2098 5.29934 43.462 5.26704C45.017 4.93971 45.6995 4.78465 48.0079 4.84323C48.0079 4.84323 48.5089 4.89319 48.699 4.89319C48.8891 4.89319 49.1897 4.9242 49.3193 4.68818C49.423 4.49867 49.2502 4.24197 49.0964 4.08691C48.8804 3.87156 48.2169 3.45636 47.5863 3.55628C47.3018 3.5973 47.0206 3.65832 46.7448 3.7389Z" fill="#231815"/>
<path d="M46.5098 5.67188C45.8602 5.7329 45.2155 5.83707 44.5798 5.98371C43.9869 6.12191 43.3854 6.2209 42.7794 6.28003C42.6343 6.29554 42.3509 6.33344 42.2611 6.45231C42.2144 6.51261 42.2801 6.7004 42.4425 6.85546C42.569 6.96346 42.7161 7.0449 42.8749 7.09493C43.0338 7.14496 43.2011 7.16253 43.3669 7.14661C43.3669 7.14661 45.2122 7.00362 46.477 6.81066L46.9297 6.74519C47.2044 6.69179 47.4739 6.71418 47.5845 6.59359C47.6951 6.47299 47.5482 6.24041 47.3824 6.06813C47.2736 5.94394 47.1395 5.84434 46.989 5.776C46.8385 5.70767 46.6752 5.67217 46.5098 5.67188Z" fill="#231815"/>
<path d="M46.4666 7.412C45.6006 7.47915 44.7414 7.6157 43.8973 7.82031C43.1596 8.00809 43.0075 8.03566 42.9764 8.04083C42.6049 8.09423 42.3492 8.05978 42.325 8.2579C42.3321 8.30483 42.3455 8.35061 42.3648 8.39401C42.4204 8.49008 42.4936 8.57482 42.5807 8.64381L42.617 8.6731C42.8471 8.82814 43.1263 8.89316 43.4015 8.85572H43.4135C44.5038 8.74546 46.4839 8.58696 47.0662 8.44396L47.239 8.40951C47.4463 8.36472 47.6156 8.37333 47.6156 8.18554C47.6156 7.99775 47.4549 7.82892 47.3357 7.69799L47.3167 7.67904C47.2094 7.56629 47.075 7.48262 46.9263 7.43591C46.7776 7.3892 46.6194 7.38097 46.4666 7.412Z" fill="#231815"/>
<path d="M46.2731 9.28102C46.2731 9.28102 44.274 9.70828 43.0628 9.77202C43.0214 9.77202 42.9384 9.75652 42.7622 9.72895C42.2438 9.6497 42.0123 9.67554 41.9363 9.75307L41.9259 9.76169C41.7635 9.92536 41.8775 10.0511 41.9259 10.1407L42.0209 10.3543C42.0607 10.4749 42.1574 10.6989 42.5721 12.3907C42.6637 12.8438 42.8037 13.0798 42.9851 13.2521L43.1043 13.3124C43.1535 13.3178 43.2033 13.3103 43.2488 13.2907C43.2942 13.271 43.3338 13.2399 43.3635 13.2004C43.4537 13.0587 43.5289 12.908 43.5881 12.7508C44.6248 12.656 46.0934 12.5906 46.5565 12.5561C47.5327 12.4941 47.6623 12.4441 47.7124 12.2615C47.7435 12.1478 47.6053 11.8842 47.4567 11.6378C47.8506 11.071 47.8334 11.0607 47.9958 10.8643C48.1582 10.6679 48.4329 10.4922 48.464 10.2837C48.4951 10.0752 47.9301 9.51877 46.871 9.12252L46.8088 9.10874C46.7258 9.0984 46.6014 9.14836 46.2731 9.28102ZM43.8317 10.5611C44.7209 10.3873 45.6264 10.3105 46.5323 10.3319C46.4286 10.8488 46.4148 11.2984 46.2559 11.6344C45.8567 11.6964 44.5021 11.7894 43.614 11.9049C43.5708 11.624 43.481 10.9056 43.4412 10.6283L43.8317 10.5611Z" fill="#231815"/>
<path d="M69.7215 0.869813C69.6676 0.853226 69.6105 0.850051 69.5551 0.860562C69.4996 0.871073 69.4477 0.894951 69.4036 0.930113C69.3072 1.09867 69.2707 1.29474 69.3 1.48658C69.3172 1.64164 69.2654 1.76395 68.9544 2.26357C68.4257 2.98383 67.8343 3.65604 67.1868 4.27238C66.9017 4.53252 66.2417 5.03731 66.3125 5.15101C66.3834 5.26472 67.2076 5.05281 67.7345 4.80645C68.1078 4.63417 68.6762 4.19313 69.687 3.24385C69.9561 2.9777 70.2412 2.72801 70.5405 2.49616C70.6401 2.43907 70.7239 2.35815 70.7842 2.26069C70.8445 2.16323 70.8796 2.05231 70.8861 1.93796C70.8912 1.87353 70.8817 1.80878 70.8585 1.74845C70.449 1.11101 70.0084 0.937003 69.7215 0.869813Z" fill="#231815"/>
<path d="M75.1642 2.1188C74.9328 2.18575 74.706 2.26747 74.4852 2.36344H74.4714C73.6851 2.65736 72.8826 2.90642 72.0679 3.10942C71.693 3.19384 71.3561 3.22485 71.3474 3.37818C71.3388 3.53151 71.4736 3.67796 71.6446 3.80544C71.8157 3.93292 72.2304 4.1879 73.0545 4.00873C73.6247 3.88296 76.4376 3.19729 76.6432 3.01295C76.6736 2.99781 76.7005 2.97674 76.7225 2.95099C76.7444 2.92524 76.761 2.89533 76.7711 2.86306C76.8074 2.69078 76.4376 2.39101 76.3236 2.30831C75.883 1.99131 75.3076 2.08435 75.1642 2.1188Z" fill="#231815"/>
<path d="M69.4174 4.02123C69.2756 4.13325 69.1812 4.29439 69.1531 4.47261C69.1531 4.47261 69.0822 5.02908 68.2891 6.09206C67.4995 7.02238 67.2853 7.37728 66.3194 8.09915C65.7855 8.49712 65.3449 8.75209 65.5091 8.85546C65.6335 8.93471 66.4628 8.76243 67.0641 8.48333C67.5479 8.26109 67.6723 8.28349 68.4464 7.4841C68.4688 7.74769 68.4844 8.00094 68.4844 8.26626C68.4844 9.11216 68.5604 10.1148 68.3116 10.8643C68.2529 11.0366 68.2062 11.1658 68.2028 11.2088C68.1767 11.2839 68.1576 11.3611 68.1457 11.4397C68.1579 11.6362 68.2108 11.828 68.3012 12.0031C68.4238 12.2358 68.5703 12.4552 68.7384 12.6577C68.8645 12.7956 69.0148 12.9351 69.1738 12.8886C69.3328 12.8421 69.5194 12.1478 69.5315 11.4535C69.5435 10.7592 69.5315 10.2613 69.5401 8.84513C69.5374 8.64213 69.5455 8.43913 69.5643 8.23697C69.5798 8.04746 69.6144 7.85451 69.6144 7.73391C69.6144 7.35833 69.4589 7.12575 69.1617 6.75535C69.3155 6.60202 69.5228 6.37977 69.7906 6.07828C69.9729 5.86789 70.1748 5.67521 70.3936 5.50286C70.4856 5.4264 70.5608 5.33201 70.6148 5.22548C70.6295 5.19758 70.6372 5.16654 70.6372 5.13503C70.6372 5.10352 70.6295 5.07249 70.6148 5.04459C70.439 4.62983 70.1407 4.2783 69.7595 4.03674C69.7088 4.00473 69.6505 3.98647 69.5905 3.98375C69.5306 3.98103 69.4709 3.99395 69.4174 4.02123Z" fill="#231815"/>
<path d="M75.7396 5.05409C75.3785 5.17469 73.6662 5.60022 71.1608 6.02576C70.8671 6.074 70.5941 6.08089 70.5319 6.22216C70.4697 6.36343 70.6062 6.54434 70.7272 6.63392C70.9951 6.81792 71.303 6.936 71.6256 6.97849H71.6705C71.8857 6.96057 72.0983 6.91957 72.3047 6.85617L72.3375 6.84411C72.4705 6.78381 72.626 6.73385 73.8684 6.53228C74.0152 7.06118 74.1068 7.95705 74.1414 9.20609C74.1414 9.33186 74.1414 9.44901 74.1414 9.56099C74.1414 10.7428 74.0584 11.1391 74.0135 11.2683C73.9375 11.2683 73.7958 11.2373 73.5262 11.1804C72.8835 11.0219 72.2096 10.6498 72.2787 10.9444C72.3116 11.084 72.709 11.4613 73.0355 11.8696C73.2631 12.1361 73.4634 12.4247 73.6334 12.731C73.82 13.0755 73.9116 13.4012 74.2122 13.2943C74.5909 13.1368 74.9177 12.8765 75.1556 12.5432C75.3312 12.3081 75.442 12.0314 75.477 11.7404C75.5184 11.3028 75.3249 10.6222 75.2869 10.0675C75.242 9.39732 75.242 8.86153 75.242 8.61V7.9381C75.2467 7.7209 75.278 7.5051 75.3353 7.29548C75.387 7.1982 75.4154 7.09028 75.4182 6.98021C75.4182 6.91183 75.4077 6.84386 75.3871 6.77864C75.3183 6.59979 75.1981 6.44518 75.0416 6.33415C75.6395 6.26095 76.2412 6.22184 76.8437 6.21699C77.2774 6.20838 77.6869 6.18598 77.8804 6.1877C78.0739 6.18943 78.594 6.18771 78.7184 5.99131C78.9084 5.69498 78.6735 5.3194 78.2363 5.01963C78.0206 4.88471 77.7796 4.79511 77.5279 4.7563C77.2763 4.71749 77.0193 4.7303 76.7728 4.79394C76.6744 4.81462 76.023 4.95934 75.7396 5.05409Z" fill="#231815"/>
<path d="M64.868 10.643C64.8127 10.5345 64.5362 10.5 64.1181 10.4173C62.8015 10.1382 62.3298 9.75057 61.2914 9.00803C61.7009 8.6962 61.9946 8.51703 62.2313 8.3034C62.3816 8.16902 62.5769 8.01397 62.7497 7.85719C62.9224 7.70041 63.0762 7.73659 63.0849 7.55914C63.0969 7.35413 62.8188 7.0423 62.6132 6.90619H62.6045C62.233 6.66672 61.8702 6.61848 61.7268 6.71496C61.5834 6.81144 61.63 6.81316 61.63 6.87174L61.6058 7.19735C61.6058 7.25076 61.4244 7.7142 60.7281 8.63591C60.5121 8.47224 59.5082 7.61083 59.218 7.35413L58.8603 7.0423L59.1886 6.95788C59.5151 6.87174 60.4827 6.82694 60.5899 6.80455C60.6651 6.85744 60.7443 6.90466 60.8266 6.94582C60.9648 7.01473 61.1479 6.85279 61.2413 6.73564C61.4059 6.52061 61.5343 6.28029 61.6214 6.02411V6.0155C61.7371 5.59168 61.8615 5.02832 61.9894 4.34609C62.0499 4.05321 62.0896 3.87403 62.1052 3.81546C62.1587 3.607 62.3125 3.43644 62.4283 3.21075C62.544 2.98506 62.6736 2.83173 62.6736 2.68185L62.6062 2.57331C62.1942 2.15616 61.6492 1.89538 61.065 1.83594L60.9492 1.848C60.8525 1.87212 60.8128 1.97376 60.6693 2.06852L60.614 2.1202C59.7731 2.30904 58.9454 2.55247 58.1363 2.84896C57.6508 2.64911 57.2344 2.66289 57.0737 2.75592C56.8785 2.88341 57.11 3.28138 57.1774 3.44505C57.269 3.67591 57.3951 3.99463 57.4625 4.8457C57.4625 4.86638 57.523 10.3846 57.523 10.4087C57.4625 11.2046 57.459 11.3201 57.1774 11.6491C56.8958 11.9782 56.8871 11.7421 56.9407 12.0695C56.9942 12.3968 57.2448 13.2376 57.5005 13.3099C57.7562 13.3823 57.9895 13.0963 58.2245 12.8413C58.3869 12.6277 58.8309 12.2159 59.2992 11.6905C60.0577 10.8394 60.3808 10.5086 60.3359 10.3777C60.2909 10.2467 59.9903 10.2881 58.4819 10.9238C58.4819 10.407 58.4957 8.52565 58.5009 7.78139C58.8914 8.19486 59.2422 8.57044 59.5376 8.90122C60.0663 9.48009 60.8266 10.3639 61.4607 11.0134C62.1121 11.7025 62.5406 11.8645 64.201 11.1547C64.5742 10.9996 64.9354 10.7825 64.868 10.643ZM58.5078 4.41844H58.5165L58.4854 4.43395V3.62422C59.2742 3.35357 60.0971 3.1941 60.9302 3.15045C60.9326 3.19407 60.9326 3.23777 60.9302 3.28138C60.9302 3.41232 60.9199 3.62595 60.8853 3.94811C60.8715 4.07733 60.8542 4.21515 60.8352 4.35987L60.8179 4.33919C60.6659 4.19448 60.4724 3.97396 60.2011 3.95673C60.2046 3.94295 58.9761 4.38399 58.5078 4.41844ZM58.5078 5.34188C58.9622 5.1851 60.5328 5.01282 60.621 4.96458C60.6724 4.93906 60.7201 4.90659 60.7626 4.8681C60.7091 5.21266 60.6417 5.58652 60.5639 5.99138C60.3666 5.95764 60.1661 5.94608 59.9661 5.95692C59.4742 6.01979 58.987 6.11533 58.5078 6.24291V5.34188Z" fill="#231815"/>
<path d="M56.996 9.81386C56.9683 9.69153 56.659 9.77251 55.0729 10.503C55.085 10.043 55.104 9.10405 55.1092 8.87492L55.3061 8.8129C55.9178 8.61133 56.5156 8.42699 56.621 8.39081C56.7264 8.35463 56.9424 8.36152 56.9666 8.18751C56.9787 8.09965 56.8404 7.85846 56.621 7.65344C56.5334 7.56907 56.4242 7.51031 56.3054 7.48359C56.1866 7.45685 56.0627 7.46315 55.9472 7.50183C55.9472 7.50183 55.8089 7.55007 55.7415 7.57936C55.6742 7.60865 55.7018 7.60003 55.4133 7.71891C55.4133 7.71891 55.2405 7.77576 55.1213 7.82228C55.1192 7.76313 55.1304 7.70426 55.1541 7.64999C55.1921 7.53112 55.2232 7.22618 55.2491 7.13315C55.2682 7.05833 55.2616 6.97927 55.2303 6.90866C55.1989 6.83806 55.1447 6.78 55.0763 6.74379C55.4612 6.63732 55.8396 6.50906 56.2098 6.3596C56.3411 6.28897 56.6089 6.2235 56.659 6.07361C56.7091 5.92373 56.5968 5.81347 56.4258 5.64808C56.3258 5.53358 56.1926 5.45297 56.0446 5.41746C55.8966 5.38197 55.7411 5.39332 55.5999 5.44995C55.3182 5.54126 54.9191 5.65842 54.9191 5.65842C54.3075 5.85654 53.9723 5.98231 53.6664 6.07706C53.9207 5.71172 54.1477 5.32822 54.3455 4.92966C54.6599 5.01408 55.047 4.96929 56.469 4.54375C56.6556 4.48862 56.9251 4.44038 56.996 4.29222C56.9993 4.20244 56.9815 4.11315 56.944 4.03149C56.9065 3.94981 56.8503 3.87804 56.78 3.82189C56.7028 3.73318 56.6075 3.66182 56.5006 3.61253C56.3937 3.56323 56.2775 3.53711 56.1597 3.5359C55.7356 3.59625 55.3214 3.71211 54.9277 3.88047C54.9007 3.89058 54.8742 3.90209 54.8483 3.91492C54.8932 3.82017 54.9398 3.72024 54.9899 3.60654C55.3614 2.79164 55.4945 2.58835 55.5671 2.51599C55.6897 2.35577 55.7865 2.29547 55.7865 2.17142C55.7865 2.04738 55.6137 1.80102 55.339 1.60634C55.0427 1.40597 54.7079 1.26926 54.3558 1.20492C54.2725 1.19027 54.1868 1.19984 54.1088 1.23249C53.9895 1.30829 54.0362 1.69937 54.0137 2.00948C53.9955 2.35573 53.9316 2.69808 53.8237 3.02767C53.2794 4.85386 52.3896 6.21833 51.2578 7.56558C51.0367 7.82917 50.5943 8.15823 50.8915 8.14617C51.174 8.0981 51.4473 8.00686 51.7019 7.87568C52.2443 7.59159 52.7326 7.21491 53.1446 6.76274C53.2297 6.86186 53.3484 6.92625 53.4781 6.94364C53.6241 6.95093 53.7705 6.93935 53.9135 6.90918C53.9543 7.05226 53.982 7.19872 53.9964 7.34678C54.0231 7.61757 54.0352 7.88959 54.0327 8.16167C53.5455 8.29777 52.9753 8.4356 52.3291 8.57343C52.1062 8.62683 51.8228 8.63372 51.7917 8.79395C51.7745 8.88181 51.8591 9.05582 52.0855 9.27117C52.2392 9.41933 52.4898 9.59334 52.7144 9.56749C52.9653 9.5221 53.2125 9.45818 53.4539 9.37626C53.5921 9.3263 53.8789 9.25222 54.0275 9.20398C54.0275 9.47791 54.0154 9.82419 53.9964 10.0654C53.9964 10.0654 53.9809 10.2515 53.9774 10.3066C53.8893 10.801 53.7511 11.0646 53.5541 11.1973C53.3571 11.3299 53.269 11.3816 53.2276 11.4678C53.2276 11.4678 53.1895 11.4988 53.1999 11.64C53.2473 11.9928 53.3517 12.3355 53.5092 12.6548C53.5483 12.7259 53.6012 12.7885 53.6647 12.8391C53.8824 12.9304 54.1001 12.7426 54.3558 12.4584C54.5286 12.2706 54.7014 12.1138 54.8483 11.9794C55.0936 11.7555 55.5394 11.3489 55.9662 10.9457C56.393 10.5426 56.6279 10.3031 56.7316 10.1912C56.9165 9.98097 57.0201 9.91206 56.996 9.81386Z" fill="#231815"/>
</g>
<rect x="88.7857" y="1" width="1" height="20" fill="black" fill-opacity="0.1"/>
<path d="M105.77 7.664H107.13L107.626 6.96C107.7 6.85333 107.791 6.8 107.898 6.8C108.004 6.8 108.234 6.98133 108.586 7.344C108.938 7.70667 109.114 7.93067 109.114 8.016C109.114 8.10133 109.012 8.144 108.81 8.144H105.77V8.432C106.42 8.58133 106.98 8.75733 107.45 8.96C107.93 9.152 108.17 9.40267 108.17 9.712C108.17 9.936 108.122 10.176 108.026 10.432C107.93 10.688 107.823 10.816 107.706 10.816C107.599 10.816 107.514 10.7893 107.45 10.736C107.396 10.672 107.311 10.544 107.194 10.352C107.076 10.16 106.874 9.91467 106.586 9.616C106.298 9.30667 106.026 9.056 105.77 8.864C105.791 9.65333 105.802 10.1493 105.802 10.352C105.802 10.5547 105.791 10.688 105.77 10.752C105.748 10.816 105.599 10.896 105.322 10.992C105.055 11.0773 104.852 11.136 104.714 11.168C105.247 11.3707 105.514 11.5467 105.514 11.696C105.514 11.7813 105.46 11.8347 105.354 11.856C105.247 11.8667 105.156 11.9093 105.082 11.984C105.007 12.048 104.9 12.192 104.762 12.416H106.378L106.794 11.952C106.879 11.856 106.954 11.808 107.018 11.808C107.082 11.808 107.327 11.9733 107.754 12.304C108.191 12.624 108.41 12.832 108.41 12.928C108.41 13.024 108.314 13.0933 108.122 13.136C107.94 13.168 107.802 13.216 107.706 13.28C107.61 13.344 107.514 13.4667 107.418 13.648C107.076 14.2773 106.73 14.8053 106.378 15.232C107.05 15.4027 107.46 15.6267 107.61 15.904C107.77 16.1813 107.85 16.432 107.85 16.656C107.85 16.88 107.818 17.0507 107.754 17.168C107.69 17.2853 107.615 17.344 107.53 17.344C107.455 17.344 107.22 17.2107 106.826 16.944C106.431 16.6773 105.983 16.4053 105.482 16.128C104.458 17.024 102.879 17.808 100.746 18.48L100.618 18.192C102.292 17.3493 103.578 16.5013 104.474 15.648C103.748 15.3387 102.89 15.0613 101.898 14.816C102.463 14.016 102.868 13.392 103.114 12.944H101.514C101.226 12.944 101.002 12.9707 100.842 13.024L100.554 12.368C100.724 12.4 100.991 12.416 101.354 12.416H103.386C103.695 11.7653 103.903 11.264 104.01 10.912C104.223 10.976 104.372 11.024 104.458 11.056C104.49 10.16 104.506 9.41333 104.506 8.816C103.727 10.064 102.388 11.1147 100.49 11.968L100.394 11.712C101.78 10.688 102.868 9.49867 103.658 8.144H101.258C101.055 8.144 100.89 8.17067 100.762 8.224L100.538 7.584C100.73 7.63733 100.938 7.664 101.162 7.664H104.506V5.632C104.506 4.71467 104.495 4.10667 104.474 3.808C105.668 4.064 106.266 4.25067 106.266 4.368C106.266 4.44267 106.1 4.57067 105.77 4.752V7.664ZM104.426 12.944L103.354 14.576C104.164 14.7253 104.756 14.8427 105.13 14.928C105.588 14.3733 105.999 13.712 106.362 12.944H104.426ZM110.602 7.824H112.842L113.498 7.024C113.604 6.90667 113.706 6.848 113.802 6.848C113.908 6.848 114.186 7.05067 114.634 7.456C115.082 7.85067 115.306 8.10133 115.306 8.208C115.306 8.28267 115.178 8.32 114.922 8.32H112.41C113.391 8.56533 113.882 8.784 113.882 8.976C113.882 9.04 113.802 9.09867 113.642 9.152C113.482 9.19467 113.364 9.27467 113.29 9.392C113.226 9.50933 113.172 9.68 113.13 9.904C112.714 12.1867 112.223 13.7867 111.658 14.704C112.511 15.8773 113.807 16.848 115.546 17.616L115.402 17.936C115.124 17.8613 114.863 17.824 114.618 17.824C114.159 17.824 113.754 17.968 113.402 18.256C113.306 18.3307 113.236 18.368 113.194 18.368C113.087 18.368 112.73 18.0213 112.122 17.328C111.514 16.6453 111.108 16.1173 110.906 15.744C110.351 16.416 109.69 16.9813 108.922 17.44C108.164 17.9093 107.178 18.3787 105.962 18.848L105.818 18.512C107.866 17.3493 109.364 16.0587 110.314 14.64C109.866 13.6267 109.588 12.128 109.482 10.144C109.108 10.8053 108.644 11.5147 108.09 12.272L107.818 12.112C109.044 9.76533 109.791 6.99733 110.058 3.808C110.431 3.88267 110.81 3.97867 111.194 4.096C111.578 4.21333 111.823 4.30933 111.93 4.384C112.036 4.448 112.09 4.51733 112.09 4.592C112.09 4.66667 111.999 4.72533 111.818 4.768C111.636 4.81067 111.503 4.90133 111.418 5.04C111.332 5.17867 111.236 5.52 111.13 6.064C111.023 6.608 110.847 7.19467 110.602 7.824ZM111.962 8.32H110.41L109.946 9.296C110.074 11.1093 110.399 12.528 110.922 13.552C111.37 12.4853 111.716 10.7413 111.962 8.32ZM107.546 4.496C107.812 4.624 108.1 4.77333 108.41 4.944C108.73 5.11467 108.911 5.22667 108.954 5.28C109.007 5.33333 109.034 5.392 109.034 5.456C109.034 5.50933 109.012 5.552 108.97 5.584C108.927 5.60533 108.815 5.616 108.634 5.616C108.452 5.616 108.266 5.712 108.074 5.904C107.476 6.50133 106.82 7.04 106.106 7.52L105.946 7.28C106.682 6.256 107.215 5.328 107.546 4.496ZM101.418 4.72C102.282 5.02933 102.863 5.29067 103.162 5.504C103.471 5.70667 103.626 5.95733 103.626 6.256C103.626 6.544 103.556 6.8 103.418 7.024C103.279 7.248 103.14 7.36 103.002 7.36C102.863 7.36 102.762 7.328 102.698 7.264C102.634 7.2 102.564 7.05067 102.49 6.816C102.426 6.58133 102.271 6.27733 102.026 5.904C101.791 5.53067 101.535 5.20533 101.258 4.928L101.418 4.72ZM119.418 8.288H117.722C117.455 8.288 117.226 8.31467 117.034 8.368L116.762 7.744C116.986 7.79733 117.252 7.824 117.562 7.824H119.418V5.408C119.418 4.78933 119.407 4.21333 119.386 3.68C120.004 3.85067 120.474 4.00533 120.794 4.144C121.114 4.272 121.274 4.368 121.274 4.432C121.274 4.48533 121.087 4.58667 120.714 4.736V7.824H120.97L121.466 7.104C121.54 6.99733 121.615 6.944 121.69 6.944C121.775 6.944 121.844 6.97067 121.898 7.024C121.962 7.07733 122.116 7.232 122.362 7.488C122.618 7.73333 122.772 7.888 122.826 7.952C122.879 8.016 122.906 8.07467 122.906 8.128C122.906 8.23467 122.815 8.288 122.634 8.288H120.714V10.416L122.65 9.488L122.778 9.792L120.714 11.248V16.704C120.714 16.9387 120.655 17.136 120.538 17.296C120.42 17.4667 120.164 17.6693 119.77 17.904C119.386 18.1387 119.146 18.256 119.05 18.256C118.975 18.256 118.916 18.1813 118.874 18.032C118.788 17.7227 118.634 17.488 118.41 17.328C118.196 17.168 117.78 17.0027 117.162 16.832L117.258 16.544C117.94 16.6187 118.431 16.656 118.73 16.656C119.028 16.656 119.215 16.6187 119.29 16.544C119.375 16.4693 119.418 16.3253 119.418 16.112V12.176C118.735 12.6667 118.324 12.9973 118.186 13.168C118.058 13.328 117.951 13.408 117.866 13.408C117.791 13.408 117.738 13.3867 117.706 13.344L117.306 12.816C117.082 12.528 116.895 12.272 116.746 12.048C117.759 11.728 118.65 11.3867 119.418 11.024V8.288ZM124.522 5.056H129.162L129.578 4.448C129.663 4.30933 129.748 4.24 129.834 4.24C129.898 4.24 130.154 4.4 130.602 4.72C131.06 5.02933 131.29 5.22133 131.29 5.296C131.29 5.392 131.092 5.536 130.698 5.728V7.568C130.698 7.824 130.703 8.00533 130.714 8.112C130.735 8.208 130.746 8.288 130.746 8.352C130.746 8.40533 130.692 8.46933 130.586 8.544C130.49 8.608 130.303 8.69867 130.026 8.816C129.748 8.92267 129.562 8.976 129.466 8.976C129.38 8.976 129.338 8.896 129.338 8.736V8.16H124.33C124.266 9.568 124.223 10.432 124.202 10.752H126.506V9.504C126.506 9.152 126.49 8.76267 126.458 8.336C127.588 8.50667 128.154 8.66133 128.154 8.8C128.154 8.87467 128.02 8.98667 127.754 9.136V10.752H129.482L130.09 9.936C130.175 9.81867 130.239 9.76 130.282 9.76C130.356 9.76 130.618 9.97333 131.066 10.4C131.524 10.816 131.754 11.0613 131.754 11.136C131.754 11.2 131.631 11.232 131.386 11.232H127.754V13.632H128.954L129.242 13.088C129.316 12.9387 129.391 12.864 129.466 12.864C129.551 12.864 129.807 13.008 130.234 13.296C130.66 13.5733 130.874 13.7493 130.874 13.824C130.874 13.8987 130.735 14 130.458 14.128V16.864L130.49 17.6C130.49 17.6853 130.442 17.7653 130.346 17.84C130.25 17.9147 130.063 18.0053 129.786 18.112C129.519 18.2293 129.338 18.288 129.242 18.288C129.156 18.288 129.114 18.2133 129.114 18.064V17.088H125.546V17.888C125.546 18.048 125.514 18.1493 125.45 18.192C125.386 18.2453 125.22 18.3147 124.954 18.4C124.687 18.496 124.495 18.544 124.378 18.544C124.314 18.544 124.287 18.4747 124.298 18.336C124.34 17.984 124.362 17.6053 124.362 17.2V14.416C124.362 13.968 124.346 13.5147 124.314 13.056C124.772 13.1947 125.226 13.3867 125.674 13.632H126.506V11.232H124.17C124.063 12.9707 123.754 14.32 123.242 15.28C122.74 16.24 121.844 17.312 120.554 18.496L120.33 18.304C121.663 16.8 122.447 15.264 122.682 13.696C122.927 12.1173 123.05 10.192 123.05 7.92C123.05 6.928 123.023 5.74933 122.97 4.384C123.61 4.59733 124.127 4.82133 124.522 5.056ZM129.338 7.712V5.536H124.41C124.41 5.87733 124.388 6.60267 124.346 7.712H129.338ZM129.114 16.656V14.096H125.546V16.656H129.114ZM142.538 15.824C141.066 16.944 139.407 17.7653 137.562 18.288L137.434 17.968C139.29 17.136 140.751 16.1493 141.818 15.008C140.975 13.856 140.42 12.3253 140.154 10.416H139.706C139.482 10.416 139.284 10.448 139.114 10.512L138.922 10.032L137.194 11.072V16.688C137.194 17.1467 137.119 17.4667 136.97 17.648C136.82 17.84 136.559 18.032 136.186 18.224C135.812 18.4267 135.583 18.528 135.498 18.528C135.412 18.528 135.343 18.4427 135.29 18.272C135.194 17.9093 135.023 17.6373 134.778 17.456C134.543 17.2853 134.042 17.0827 133.274 16.848L133.322 16.56C134.154 16.624 134.74 16.656 135.082 16.656C135.434 16.656 135.652 16.624 135.738 16.56C135.823 16.496 135.866 16.3733 135.866 16.192V11.856C135.002 12.368 134.516 12.6613 134.41 12.736C134.303 12.8 134.228 12.832 134.186 12.832C134.143 12.832 134.106 12.816 134.074 12.784C134.052 12.752 133.972 12.6293 133.834 12.416C133.695 12.192 133.524 11.8987 133.322 11.536C134.036 11.3653 134.884 11.0773 135.866 10.672V8.064H133.962C133.695 8.064 133.466 8.09067 133.274 8.144L133.002 7.488C133.226 7.54133 133.492 7.568 133.802 7.568H135.866V5.616C135.866 4.99733 135.855 4.42133 135.834 3.888C137.039 4.22933 137.642 4.46933 137.642 4.608C137.642 4.69333 137.492 4.83733 137.194 5.04V7.568H137.626L138.17 6.848C138.266 6.72 138.356 6.656 138.442 6.656C138.527 6.656 138.756 6.848 139.13 7.232C139.514 7.60533 139.706 7.83467 139.706 7.92C139.706 8.016 139.61 8.064 139.418 8.064H137.194V10.144L139.722 9.12L139.866 9.456L139.114 9.904C139.199 9.91467 139.348 9.92 139.562 9.92H142.01V7.36H140.314C140.068 7.36 139.871 7.39733 139.722 7.472L139.45 6.784C139.663 6.83733 139.903 6.864 140.17 6.864H142.01V5.024C142.01 4.544 141.999 4.11733 141.978 3.744C142.415 3.85067 142.81 3.96267 143.162 4.08C143.514 4.19733 143.732 4.28267 143.818 4.336C143.914 4.37867 143.962 4.44267 143.962 4.528C143.962 4.61333 143.791 4.768 143.45 4.992V6.864H145.29L145.93 5.936C146.015 5.808 146.09 5.744 146.154 5.744C146.271 5.744 146.559 5.95733 147.018 6.384C147.476 6.81067 147.706 7.07733 147.706 7.184C147.706 7.30133 147.583 7.36 147.338 7.36H143.45V9.92H144.554L145.018 9.28C145.082 9.19467 145.146 9.152 145.21 9.152C145.295 9.152 145.578 9.296 146.058 9.584C146.538 9.86133 146.778 10.0427 146.778 10.128C146.778 10.2027 146.687 10.2773 146.506 10.352C146.324 10.416 146.196 10.4907 146.122 10.576C146.047 10.6613 145.972 10.7893 145.898 10.96C145.13 12.688 144.346 13.9893 143.546 14.864C144.463 15.6 146.036 16.2347 148.266 16.768V17.088C147.732 17.1093 147.348 17.1893 147.114 17.328C146.879 17.4773 146.666 17.7387 146.474 18.112C146.42 18.208 146.372 18.256 146.33 18.256C146.212 18.256 145.743 18.0213 144.922 17.552C144.111 17.0933 143.316 16.5173 142.538 15.824ZM142.618 14.096C143.332 13.2853 143.983 12.0587 144.57 10.416H140.634C141.071 11.9307 141.732 13.1573 142.618 14.096ZM156.426 8.176V5.648C156.426 4.944 156.41 4.336 156.378 3.824C156.847 3.93067 157.284 4.064 157.69 4.224C158.106 4.37333 158.356 4.47467 158.442 4.528C158.527 4.57067 158.57 4.61867 158.57 4.672C158.57 4.768 158.367 4.92267 157.962 5.136V8.176H161.754L162.538 7.072C162.634 6.944 162.719 6.88 162.794 6.88C162.932 6.88 163.263 7.12533 163.786 7.616C164.308 8.096 164.57 8.4 164.57 8.528C164.57 8.64533 164.42 8.704 164.122 8.704H158.746C159.226 10.2507 159.983 11.5733 161.018 12.672C162.052 13.76 163.316 14.5493 164.81 15.04L164.746 15.392C164.586 15.3813 164.394 15.376 164.17 15.376C163.956 15.376 163.738 15.424 163.514 15.52C163.3 15.6053 163.055 15.824 162.778 16.176C162.714 16.2613 162.655 16.304 162.602 16.304C162.452 16.304 161.988 15.9147 161.21 15.136C160.431 14.3467 159.77 13.4133 159.226 12.336C158.692 11.248 158.351 10.0373 158.202 8.704H157.962V16L157.994 18.08C157.994 18.1867 157.978 18.256 157.946 18.288C157.924 18.3307 157.812 18.4 157.61 18.496C157.407 18.592 157.183 18.6667 156.938 18.72C156.703 18.784 156.548 18.816 156.474 18.816C156.41 18.816 156.378 18.768 156.378 18.672C156.378 18.576 156.383 18.3307 156.394 17.936C156.415 17.552 156.426 17.072 156.426 16.496V10.272C155.583 11.7653 154.655 13.024 153.642 14.048C152.628 15.072 151.348 16.0427 149.802 16.96L149.61 16.704C152.468 14.2613 154.383 11.5947 155.354 8.704H151.13C150.852 8.704 150.623 8.73067 150.442 8.784L150.17 8.096C150.394 8.14933 150.66 8.176 150.97 8.176H156.426ZM159.242 4.464C159.999 4.816 160.612 5.152 161.082 5.472C161.551 5.78133 161.786 6.10133 161.786 6.432C161.786 6.64533 161.711 6.90133 161.562 7.2C161.423 7.488 161.226 7.632 160.97 7.632C160.82 7.632 160.714 7.59467 160.65 7.52C160.586 7.44533 160.516 7.27467 160.442 7.008C160.367 6.74133 160.191 6.37333 159.914 5.904C159.636 5.424 159.354 5.024 159.066 4.704L159.242 4.464ZM175.722 10.96C175.668 13.264 175.306 14.9227 174.634 15.936C173.962 16.9387 172.836 17.8613 171.258 18.704L171.098 18.496C172.346 17.4613 173.199 16.4373 173.658 15.424C174.127 14.4107 174.378 12.9227 174.41 10.96H173.338C173.103 10.96 172.9 10.992 172.73 11.056L172.474 10.432C172.687 10.4747 172.927 10.496 173.194 10.496H174.41C174.42 10.0053 174.426 9.28533 174.426 8.336C174.426 7.376 174.399 6.44267 174.346 5.536H174.138C173.892 5.536 173.684 5.568 173.514 5.632L173.258 4.976C173.471 5.01867 173.711 5.04 173.978 5.04H178.458L179.002 4.096C179.087 3.968 179.167 3.904 179.242 3.904C179.316 3.904 179.428 3.95733 179.578 4.064C179.727 4.17067 179.924 4.34133 180.17 4.576C180.426 4.81067 180.596 4.98133 180.682 5.088C180.778 5.184 180.826 5.26933 180.826 5.344C180.826 5.472 180.74 5.536 180.57 5.536H178.73V10.496H179.178L179.77 9.584C179.834 9.47733 179.908 9.424 179.994 9.424C180.09 9.424 180.346 9.632 180.762 10.048C181.188 10.4533 181.402 10.7093 181.402 10.816C181.402 10.912 181.247 10.96 180.938 10.96H178.73V16.48L178.762 17.824C178.762 17.9627 178.735 18.064 178.682 18.128C178.628 18.192 178.463 18.272 178.186 18.368C177.919 18.4747 177.69 18.528 177.498 18.528C177.412 18.528 177.37 18.448 177.37 18.288V10.96H175.722ZM175.77 5.536C175.791 7.392 175.775 9.04533 175.722 10.496H177.37V5.536H175.77ZM168.73 5.84H167.386C167.098 5.84 166.874 5.87733 166.714 5.952L166.426 5.296C166.65 5.34933 166.916 5.376 167.226 5.376H170.922L171.53 4.384C171.583 4.29867 171.642 4.256 171.706 4.256C171.78 4.256 171.935 4.36267 172.17 4.576C172.415 4.78933 172.65 4.99733 172.874 5.2C173.098 5.392 173.21 5.54667 173.21 5.664C173.21 5.78133 173.114 5.84 172.922 5.84H170.186C169.994 7.472 169.706 8.77867 169.322 9.76H170.794L171.05 9.312C171.103 9.22667 171.167 9.184 171.242 9.184C171.316 9.184 171.551 9.31733 171.946 9.584C172.34 9.84 172.538 10.0053 172.538 10.08C172.538 10.1547 172.42 10.2773 172.186 10.448V14.528C172.186 14.976 172.191 15.2907 172.202 15.472L172.218 15.984C172.218 16.1867 172.068 16.3467 171.77 16.464C171.471 16.5813 171.263 16.64 171.146 16.64C171.028 16.64 170.959 16.624 170.938 16.592C170.916 16.56 170.906 16.496 170.906 16.4V15.632H169.514V17.2C169.514 17.328 169.466 17.4293 169.37 17.504C169.274 17.5893 169.108 17.68 168.874 17.776C168.639 17.872 168.458 17.92 168.33 17.92C168.255 17.92 168.218 17.8347 168.218 17.664L168.25 17.184C168.26 16.832 168.266 16.5067 168.266 16.208V11.808C167.839 12.48 167.268 13.2213 166.554 14.032L166.346 13.872C167.818 11.632 168.612 8.95467 168.73 5.84ZM170.906 15.184V10.272H169.514V15.184H170.906ZM197.178 8.352C197.295 8.48 197.338 8.592 197.306 8.688C197.274 8.77333 197.156 8.816 196.954 8.816H190.106C190.02 9.15733 189.93 9.48267 189.834 9.792C189.748 10.0907 189.658 10.3787 189.562 10.656H193.034L193.386 10.176C193.471 10.0587 193.535 10.0053 193.578 10.016C193.631 10.016 193.716 10.0427 193.834 10.096C194.047 10.2133 194.255 10.3307 194.458 10.448C194.671 10.5547 194.858 10.6667 195.018 10.784C195.22 10.9227 195.306 11.0293 195.274 11.104C195.242 11.1787 195.119 11.248 194.906 11.312C194.746 11.3653 194.628 11.4293 194.554 11.504C194.49 11.568 194.426 11.696 194.362 11.888C194.127 12.56 193.834 13.184 193.482 13.76C193.14 14.3253 192.724 14.8533 192.234 15.344C192.799 15.7067 193.54 16.0373 194.458 16.336C195.386 16.6453 196.516 16.8693 197.85 17.008L197.834 17.296C197.524 17.3173 197.268 17.344 197.066 17.376C196.863 17.4187 196.687 17.472 196.538 17.536C196.388 17.6 196.255 17.68 196.138 17.776C196.02 17.8827 195.892 18.016 195.754 18.176C195.679 18.2613 195.615 18.3147 195.562 18.336C195.519 18.368 195.423 18.3573 195.274 18.304C194.442 17.952 193.711 17.5947 193.082 17.232C192.463 16.8693 191.919 16.4693 191.45 16.032C190.746 16.576 189.924 17.0453 188.986 17.44C188.047 17.8347 186.943 18.1707 185.674 18.448L185.562 18.192C186.746 17.7333 187.754 17.2747 188.586 16.816C189.428 16.3573 190.148 15.8507 190.746 15.296C190.372 14.816 190.052 14.2933 189.786 13.728C189.53 13.1627 189.311 12.512 189.13 11.776C188.842 12.4587 188.522 13.072 188.17 13.616C187.818 14.16 187.407 14.6773 186.938 15.168C186.479 15.6587 185.946 16.1333 185.338 16.592C184.73 17.0613 184.026 17.5573 183.226 18.08L182.938 17.856C183.812 17.184 184.559 16.528 185.178 15.888C185.796 15.248 186.319 14.576 186.746 13.872C187.183 13.1573 187.546 12.3947 187.834 11.584C188.122 10.7627 188.383 9.84 188.618 8.816H186.122L185.642 9.504C185.588 9.568 185.54 9.60533 185.498 9.616C185.455 9.616 185.386 9.59467 185.29 9.552C185.076 9.456 184.863 9.36 184.65 9.264C184.447 9.15733 184.239 9.02933 184.026 8.88C184.143 8.80533 184.239 8.736 184.314 8.672C184.399 8.59733 184.474 8.50667 184.538 8.4C184.602 8.28267 184.666 8.13867 184.73 7.968C184.794 7.78667 184.874 7.552 184.97 7.264C185.087 6.89067 185.194 6.50133 185.29 6.096C185.386 5.68 185.487 5.17867 185.594 4.592C185.786 4.67733 185.956 4.752 186.106 4.816C186.255 4.88 186.394 4.93867 186.522 4.992C186.65 5.04533 186.772 5.104 186.89 5.168C187.018 5.22133 187.151 5.28 187.29 5.344C187.407 5.39733 187.466 5.46133 187.466 5.536C187.466 5.61067 187.402 5.67467 187.274 5.728C187.06 5.81333 186.922 5.888 186.858 5.952C186.804 6.00533 186.756 6.10667 186.714 6.256C186.618 6.59733 186.506 6.96 186.378 7.344C186.25 7.728 186.138 8.05333 186.042 8.32H188.73C188.815 7.91467 188.89 7.536 188.954 7.184C189.018 6.832 189.071 6.48533 189.114 6.144C189.156 5.792 189.194 5.43467 189.226 5.072C189.268 4.69867 189.306 4.288 189.338 3.84C189.69 3.904 190.036 3.984 190.378 4.08C190.73 4.16533 191.012 4.24 191.226 4.304C191.407 4.35733 191.498 4.42667 191.498 4.512C191.508 4.58667 191.439 4.656 191.29 4.72C191.194 4.76267 191.114 4.80533 191.05 4.848C190.996 4.88 190.948 4.92267 190.906 4.976C190.874 5.02933 190.847 5.09867 190.826 5.184C190.804 5.26933 190.783 5.38133 190.762 5.52C190.73 5.72267 190.692 5.94667 190.65 6.192C190.607 6.43733 190.559 6.688 190.506 6.944C190.463 7.2 190.415 7.45067 190.362 7.696C190.319 7.93067 190.276 8.13867 190.234 8.32H194.634L195.338 7.248C195.412 7.14133 195.476 7.088 195.53 7.088C195.594 7.07733 195.695 7.12 195.834 7.216C196.111 7.408 196.372 7.616 196.618 7.84C196.874 8.05333 197.06 8.224 197.178 8.352ZM189.402 11.104C189.402 11.1253 189.396 11.1413 189.386 11.152C189.386 11.152 189.386 11.1627 189.386 11.184C189.695 11.984 189.999 12.656 190.298 13.2C190.607 13.744 190.964 14.2187 191.37 14.624C191.743 14.1547 192.063 13.6373 192.33 13.072C192.607 12.496 192.852 11.84 193.066 11.104H189.402ZM194.298 5.712C194.607 5.92533 194.767 6.21333 194.778 6.576C194.799 6.928 194.639 7.25867 194.298 7.568C194.159 7.68533 194.031 7.744 193.914 7.744C193.807 7.73333 193.695 7.62133 193.578 7.408C193.428 7.12 193.284 6.86933 193.146 6.656C193.018 6.44267 192.884 6.25067 192.746 6.08C192.607 5.90933 192.452 5.75467 192.282 5.616C192.122 5.46667 191.935 5.31733 191.722 5.168L191.85 4.848C192.266 4.96533 192.607 5.06667 192.874 5.152C193.151 5.22667 193.38 5.296 193.562 5.36C193.743 5.424 193.887 5.48267 193.994 5.536C194.111 5.58933 194.212 5.648 194.298 5.712ZM202.426 5.248C202.447 4.90667 202.458 4.62933 202.458 4.416C202.468 4.192 202.463 3.99467 202.442 3.824C202.858 3.92 203.204 4.016 203.482 4.112C203.759 4.19733 204.02 4.29867 204.266 4.416C204.532 4.53333 204.65 4.64533 204.618 4.752C204.596 4.85867 204.394 4.97067 204.01 5.088L203.834 7.152H210.826L211.482 6.08C211.567 5.93067 211.652 5.856 211.738 5.856C211.834 5.856 211.956 5.91467 212.106 6.032C212.351 6.23467 212.564 6.42133 212.746 6.592C212.938 6.752 213.146 6.95467 213.37 7.2C213.508 7.34933 213.556 7.46667 213.514 7.552C213.482 7.63733 213.354 7.68 213.13 7.68H203.786L203.562 10.384H210.778L211.146 9.792C211.252 9.62133 211.439 9.61067 211.706 9.76C211.93 9.888 212.127 10.016 212.298 10.144C212.468 10.2613 212.66 10.4053 212.874 10.576C212.948 10.64 213.002 10.6987 213.034 10.752C213.076 10.8053 213.082 10.864 213.05 10.928C213.018 10.992 212.943 11.0667 212.826 11.152C212.708 11.2267 212.538 11.3173 212.314 11.424C212.218 12.4693 212.132 13.3067 212.058 13.936C211.994 14.5547 211.94 15.04 211.898 15.392C211.855 15.7333 211.812 15.9787 211.77 16.128C211.738 16.2773 211.706 16.4053 211.674 16.512C211.556 16.864 211.434 17.1573 211.306 17.392C211.178 17.6267 211.018 17.8293 210.826 18C210.634 18.1707 210.404 18.3093 210.138 18.416C209.871 18.5333 209.54 18.6453 209.146 18.752C208.986 18.7947 208.863 18.7947 208.778 18.752C208.703 18.72 208.655 18.608 208.634 18.416C208.612 18.2453 208.58 18.1013 208.538 17.984C208.506 17.8773 208.415 17.7707 208.266 17.664C208.116 17.5573 207.892 17.4453 207.594 17.328C207.295 17.2107 206.884 17.0613 206.362 16.88L206.442 16.512C207.252 16.672 207.892 16.7787 208.362 16.832C208.842 16.8853 209.21 16.8853 209.466 16.832C209.722 16.7787 209.898 16.6613 209.994 16.48C210.1 16.3093 210.186 16.0693 210.25 15.76C210.367 15.184 210.479 14.512 210.586 13.744C210.703 12.976 210.81 12.0213 210.906 10.88H203.562L203.546 10.992C203.535 11.1413 203.476 11.2267 203.37 11.248C203.199 11.3013 203.028 11.3493 202.858 11.392C202.687 11.4347 202.49 11.4827 202.266 11.536C202.148 11.568 202.068 11.5733 202.026 11.552C201.994 11.52 201.988 11.4293 202.01 11.28C202.031 11.1413 202.052 10.9333 202.074 10.656C202.095 10.3787 202.111 10.1547 202.122 9.984L202.426 5.248ZM209.626 13.664C209.53 13.536 209.375 13.376 209.162 13.184C208.959 12.9813 208.735 12.7893 208.49 12.608C208.319 12.48 208.202 12.4213 208.138 12.432C208.084 12.4427 208.015 12.512 207.93 12.64L207.338 13.6H200.314C200.154 13.6 200.015 13.5947 199.898 13.584C199.791 13.5733 199.663 13.552 199.514 13.52L199.818 14.224C199.882 14.192 199.978 14.1653 200.106 14.144C200.234 14.1227 200.362 14.112 200.49 14.112H209.45C209.642 14.112 209.754 14.0853 209.786 14.032C209.818 13.968 209.764 13.8453 209.626 13.664ZM228.154 3.872C228.954 4.064 229.466 4.20267 229.69 4.288C229.914 4.36267 230.026 4.44267 230.026 4.528C230.026 4.60267 229.866 4.71467 229.546 4.864V16.544C229.546 16.928 229.476 17.216 229.338 17.408C229.199 17.6 228.938 17.7973 228.554 18C228.18 18.2133 227.935 18.32 227.818 18.32C227.711 18.32 227.642 18.2507 227.61 18.112C227.482 17.696 227.247 17.3653 226.906 17.12C226.575 16.8853 226.116 16.688 225.53 16.528L225.61 16.176C226.698 16.3573 227.37 16.448 227.626 16.448C227.892 16.448 228.052 16.416 228.106 16.352C228.159 16.288 228.186 16.176 228.186 16.016V5.312C228.186 4.75733 228.175 4.27733 228.154 3.872ZM218.01 10.048C217.423 10.7947 216.66 11.5947 215.722 12.448L215.514 12.272C216.378 11.2373 217.183 9.93067 217.93 8.352C218.687 6.76267 219.226 5.26933 219.546 3.872C220.506 4.11733 221.076 4.27733 221.258 4.352C221.439 4.416 221.53 4.50133 221.53 4.608C221.53 4.704 221.455 4.77333 221.306 4.816C221.156 4.848 221.044 4.90667 220.97 4.992C220.895 5.06667 220.799 5.22133 220.682 5.456C221.716 5.76533 222.484 6.02667 222.986 6.24C223.487 6.44267 223.828 6.65067 224.01 6.864C224.202 7.07733 224.298 7.32267 224.298 7.6C224.298 7.86667 224.228 8.10133 224.09 8.304C223.962 8.496 223.834 8.592 223.706 8.592C223.588 8.592 223.498 8.57067 223.434 8.528C223.38 8.47467 223.268 8.31467 223.098 8.048C222.938 7.78133 222.602 7.43467 222.09 7.008C221.588 6.57067 221.055 6.192 220.49 5.872C219.988 7.01333 219.37 8.12267 218.634 9.2C218.89 9.296 219.13 9.42933 219.354 9.6H221.786L222.218 9.104C222.292 9.01867 222.367 8.976 222.442 8.976C222.516 8.976 222.708 9.06667 223.018 9.248C223.327 9.42933 223.562 9.57867 223.722 9.696C223.892 9.81333 223.978 9.89867 223.978 9.952C223.978 10.048 223.759 10.1973 223.322 10.4C223.332 11.0507 223.322 11.7227 223.29 12.416C223.268 13.0987 223.236 13.5307 223.194 13.712C223.162 13.8827 223.071 14.0427 222.922 14.192C222.783 14.3413 222.543 14.5013 222.202 14.672C221.86 14.832 221.652 14.912 221.578 14.912C221.514 14.912 221.455 14.8427 221.402 14.704C221.263 14.3627 221.124 14.1387 220.986 14.032C220.858 13.9147 220.527 13.7387 219.994 13.504L220.026 13.2C220.666 13.296 221.098 13.344 221.322 13.344C221.546 13.344 221.695 13.3227 221.77 13.28C221.844 13.2267 221.898 13.136 221.93 13.008C221.962 12.88 221.988 12.5067 222.01 11.888C222.042 11.2693 222.047 10.656 222.026 10.048H219.274V16.384C219.274 16.608 219.38 16.7573 219.594 16.832C219.807 16.9173 220.228 16.96 220.858 16.96C221.487 16.96 222.004 16.9333 222.41 16.88C222.815 16.8267 223.076 16.7627 223.194 16.688C223.311 16.624 223.407 16.496 223.482 16.304C223.567 16.1227 223.647 15.8453 223.722 15.472C223.796 15.088 223.871 14.5547 223.946 13.872H224.266C224.234 14.64 224.266 15.1893 224.362 15.52C224.458 15.8507 224.639 16.1173 224.906 16.32C225.044 16.416 225.114 16.512 225.114 16.608C225.114 16.768 224.954 17.0187 224.634 17.36C224.324 17.712 223.914 17.9253 223.402 18C222.89 18.0853 222.047 18.128 220.874 18.128C219.946 18.128 219.3 18.064 218.938 17.936C218.575 17.8187 218.33 17.664 218.202 17.472C218.074 17.2907 218.01 16.976 218.01 16.528V10.048ZM225.354 6.48C226.538 6.82133 227.13 7.06667 227.13 7.216C227.13 7.32267 226.959 7.41867 226.618 7.504V12.384L226.65 13.792C226.65 13.9307 226.612 14.0373 226.538 14.112C226.463 14.1867 226.308 14.2773 226.074 14.384C225.839 14.4907 225.652 14.544 225.514 14.544C225.407 14.544 225.354 14.4427 225.354 14.24L225.386 12.384V7.776C225.386 7.28533 225.375 6.85333 225.354 6.48ZM247.194 9.408C247.364 9.61067 247.439 9.744 247.418 9.808C247.396 9.86133 247.29 9.888 247.098 9.888H244.906V16.528C244.906 16.8373 244.906 17.1093 244.906 17.344C244.906 17.5893 244.916 17.8507 244.938 18.128C244.948 18.2133 244.943 18.272 244.922 18.304C244.9 18.336 244.858 18.3733 244.794 18.416C244.676 18.48 244.516 18.5493 244.314 18.624C244.122 18.6987 243.93 18.7627 243.738 18.816C243.62 18.8373 243.562 18.7733 243.562 18.624V9.888H242.026C241.994 10.6667 241.962 11.3067 241.93 11.808C241.898 12.3093 241.86 12.7307 241.818 13.072C241.775 13.4027 241.727 13.68 241.674 13.904C241.631 14.128 241.572 14.3467 241.498 14.56C241.37 14.944 241.242 15.2747 241.114 15.552C240.986 15.8187 240.81 16.0907 240.586 16.368C240.362 16.6453 240.068 16.9547 239.706 17.296C239.343 17.648 238.858 18.0853 238.25 18.608L237.962 18.4C238.346 17.9627 238.676 17.568 238.954 17.216C239.242 16.864 239.482 16.5227 239.674 16.192C239.876 15.872 240.042 15.5467 240.17 15.216C240.298 14.8853 240.404 14.5227 240.49 14.128C240.575 13.7333 240.639 13.2907 240.682 12.8C240.724 12.3093 240.762 11.7387 240.794 11.088C240.804 10.896 240.81 10.5653 240.81 10.096C240.81 9.616 240.804 9.08267 240.794 8.496C240.783 7.89867 240.772 7.29067 240.762 6.672C240.751 6.05333 240.74 5.504 240.73 5.024C241.007 5.17333 241.247 5.30667 241.45 5.424C241.652 5.53067 241.898 5.66933 242.186 5.84C242.602 5.68 242.954 5.536 243.242 5.408C243.53 5.28 243.791 5.14667 244.026 5.008C244.271 4.86933 244.511 4.72 244.746 4.56C244.98 4.4 245.252 4.19733 245.562 3.952C245.743 4.16533 245.919 4.39467 246.09 4.64C246.271 4.87467 246.426 5.08267 246.554 5.264C246.703 5.488 246.756 5.632 246.714 5.696C246.671 5.74933 246.538 5.73333 246.314 5.648C246.239 5.616 246.17 5.59467 246.106 5.584C246.052 5.57333 245.983 5.568 245.898 5.568C245.823 5.568 245.716 5.584 245.578 5.616C245.45 5.63733 245.274 5.66933 245.05 5.712C244.356 5.86133 243.786 5.97333 243.338 6.048C242.89 6.12267 242.479 6.176 242.106 6.208C242.095 6.82667 242.09 7.392 242.09 7.904C242.09 8.416 242.079 8.88533 242.058 9.312H245.226L245.658 8.416C245.722 8.288 245.786 8.22933 245.85 8.24C245.914 8.24 245.999 8.28267 246.106 8.368C246.319 8.54933 246.522 8.736 246.714 8.928C246.916 9.12 247.076 9.28 247.194 9.408ZM239.45 14.928C239.492 15.2267 239.45 15.4773 239.322 15.68C239.194 15.8827 239.06 15.9947 238.922 16.016C238.794 16.0267 238.671 15.9307 238.554 15.728C238.308 15.3013 238.074 14.9653 237.85 14.72C237.626 14.4747 237.375 14.2453 237.098 14.032V17.328C237.098 17.488 237.076 17.5947 237.034 17.648C237.002 17.7013 236.922 17.7653 236.794 17.84C236.57 17.9573 236.34 18.032 236.106 18.064C235.967 18.0853 235.876 18.0853 235.834 18.064C235.802 18.0427 235.791 17.9733 235.802 17.856C235.812 17.632 235.823 17.4347 235.834 17.264C235.844 17.0933 235.85 16.928 235.85 16.768C235.86 16.6187 235.866 16.464 235.866 16.304C235.866 16.1547 235.866 15.984 235.866 15.792V13.76C235.62 14.1227 235.386 14.448 235.162 14.736C234.948 15.0133 234.719 15.2853 234.474 15.552C234.228 15.808 233.951 16.0747 233.642 16.352C233.332 16.6293 232.964 16.9387 232.538 17.28L232.378 17.072C232.719 16.6667 233.018 16.2987 233.274 15.968C233.54 15.6373 233.775 15.3067 233.978 14.976C234.191 14.6453 234.383 14.2987 234.554 13.936C234.735 13.5733 234.916 13.1573 235.098 12.688H233.818C233.69 12.688 233.562 12.6987 233.434 12.72C233.306 12.7413 233.21 12.768 233.146 12.8L232.858 12.176C233.007 12.208 233.135 12.2293 233.242 12.24C233.359 12.2507 233.498 12.256 233.658 12.256H235.866V10.272H233.242C233.114 10.272 232.986 10.2827 232.858 10.304C232.73 10.3253 232.634 10.352 232.57 10.384L232.282 9.728C232.431 9.76 232.559 9.78133 232.666 9.792C232.783 9.80267 232.922 9.808 233.082 9.808H236.522C236.863 9.168 237.135 8.624 237.338 8.176C237.54 7.71733 237.716 7.248 237.866 6.768C238.207 6.91733 238.468 7.04 238.65 7.136C238.842 7.22133 239.034 7.31733 239.226 7.424C239.354 7.49867 239.402 7.57333 239.37 7.648C239.348 7.72267 239.279 7.77067 239.162 7.792C239.023 7.81333 238.916 7.85067 238.842 7.904C238.778 7.95733 238.66 8.06933 238.49 8.24C238.298 8.432 238.143 8.60267 238.026 8.752C237.919 8.89067 237.823 9.01867 237.738 9.136C237.663 9.25333 237.583 9.36533 237.498 9.472C237.423 9.57867 237.322 9.69067 237.194 9.808H238.458L238.954 9.088C239.018 8.992 239.087 8.93867 239.162 8.928C239.236 8.91733 239.332 8.96 239.45 9.056C239.652 9.216 239.828 9.36533 239.978 9.504C240.127 9.632 240.271 9.76533 240.41 9.904C240.559 10.0533 240.623 10.1547 240.602 10.208C240.58 10.2507 240.458 10.272 240.234 10.272H237.098V12.256H238.122L238.554 11.536C238.628 11.312 238.783 11.2853 239.018 11.456C239.146 11.5413 239.252 11.6213 239.338 11.696C239.423 11.76 239.498 11.824 239.562 11.888C239.626 11.952 239.684 12.016 239.738 12.08C239.791 12.1333 239.855 12.192 239.93 12.256C240.143 12.448 240.234 12.5707 240.202 12.624C240.17 12.6667 239.999 12.688 239.69 12.688H237.098V13.552C237.546 13.6587 237.914 13.76 238.202 13.856C238.49 13.952 238.719 14.0587 238.89 14.176C239.071 14.2827 239.204 14.4 239.29 14.528C239.375 14.6453 239.428 14.7787 239.45 14.928ZM240.218 6.272C240.474 6.51733 240.415 6.64 240.042 6.64H233.802C233.674 6.64 233.546 6.65067 233.418 6.672C233.29 6.69333 233.194 6.72 233.13 6.752L232.842 6.128C232.991 6.16 233.119 6.18133 233.226 6.192C233.343 6.20267 233.482 6.208 233.642 6.208H236.186C236.111 6.144 236.042 6.05333 235.978 5.936C235.924 5.81867 235.898 5.70133 235.898 5.584C235.898 5.46667 235.887 5.35467 235.866 5.248C235.855 5.14133 235.823 5.02933 235.77 4.912C235.727 4.784 235.658 4.64533 235.562 4.496C235.476 4.336 235.354 4.14933 235.194 3.936L235.354 3.728C235.812 3.87733 236.175 4.016 236.442 4.144C236.708 4.272 236.911 4.4 237.05 4.528C237.188 4.64533 237.274 4.768 237.306 4.896C237.348 5.01333 237.37 5.14133 237.37 5.28C237.37 5.42933 237.316 5.59467 237.21 5.776C237.103 5.94667 236.959 6.09067 236.778 6.208H238.218L238.682 5.456C238.756 5.33867 238.831 5.28 238.906 5.28C238.98 5.26933 239.082 5.31733 239.21 5.424C239.423 5.584 239.604 5.728 239.754 5.856C239.903 5.984 240.058 6.12267 240.218 6.272ZM235.77 8.512C235.77 8.61867 235.743 8.74133 235.69 8.88C235.636 9.01867 235.567 9.152 235.482 9.28C235.407 9.39733 235.322 9.49867 235.226 9.584C235.13 9.66933 235.044 9.712 234.97 9.712C234.884 9.712 234.804 9.68 234.73 9.616C234.666 9.552 234.618 9.41867 234.586 9.216C234.543 8.96 234.5 8.74133 234.458 8.56C234.426 8.37867 234.383 8.21333 234.33 8.064C234.276 7.904 234.207 7.74933 234.122 7.6C234.047 7.45067 233.946 7.28 233.818 7.088L234.058 6.896C234.41 7.10933 234.698 7.29067 234.922 7.44C235.146 7.58933 235.316 7.72267 235.434 7.84C235.562 7.95733 235.647 8.06933 235.69 8.176C235.743 8.28267 235.77 8.39467 235.77 8.512ZM251.402 7.28H255.242V5.12C255.242 4.56533 255.231 4.09067 255.21 3.696C256.01 3.96267 256.57 4.16 256.89 4.288C257.22 4.40533 257.386 4.51733 257.386 4.624C257.386 4.72 257.167 4.85333 256.73 5.024V7.28H260.794L261.21 6.496C261.274 6.37867 261.343 6.32 261.418 6.32C261.524 6.32 261.85 6.48 262.394 6.8C262.938 7.10933 263.21 7.32267 263.21 7.44C263.21 7.55733 262.943 7.73867 262.41 7.984V12.24C262.41 12.4 262.415 12.5493 262.426 12.688L262.458 13.024C262.458 13.0987 262.404 13.168 262.298 13.232C262.191 13.296 261.988 13.3707 261.69 13.456C261.391 13.5307 261.172 13.568 261.034 13.568C260.97 13.568 260.938 13.5147 260.938 13.408V12.56H256.73V16.16C256.73 16.512 256.74 16.8853 256.762 17.28L256.778 17.824C256.778 17.9093 256.74 17.9787 256.666 18.032C256.591 18.0853 256.356 18.1707 255.962 18.288C255.578 18.416 255.354 18.48 255.29 18.48C255.226 18.48 255.194 18.3947 255.194 18.224L255.226 17.6C255.236 17.1733 255.242 16.6933 255.242 16.16V12.56H251.082V13.248C251.082 13.3227 251.039 13.392 250.954 13.456C250.868 13.52 250.644 13.6107 250.282 13.728C249.93 13.8453 249.711 13.904 249.626 13.904C249.551 13.904 249.519 13.8507 249.53 13.744C249.583 13.3813 249.61 12.9813 249.61 12.544V7.712C249.61 7.264 249.594 6.81067 249.562 6.352C250.33 6.65067 250.943 6.96 251.402 7.28ZM255.242 7.744H251.082V12.096H255.242V7.744ZM260.938 12.096V7.744H256.73V12.096H260.938ZM271.914 3.872C273.983 5.152 275.018 6.208 275.018 7.04C275.018 7.392 274.922 7.72267 274.73 8.032C274.538 8.34133 274.33 8.496 274.106 8.496C273.978 8.496 273.844 8.432 273.706 8.304C273.578 8.16533 273.498 8.00533 273.466 7.824C273.348 7.17333 273.14 6.57067 272.842 6.016C272.543 5.45067 272.159 4.84267 271.69 4.192L271.914 3.872ZM276.602 12.896C276.634 13.7387 276.687 14.3787 276.762 14.816C276.836 15.2427 276.938 15.552 277.066 15.744C277.204 15.9253 277.402 16.0853 277.658 16.224C277.839 16.32 277.93 16.4053 277.93 16.48C277.93 16.5547 277.834 16.7467 277.642 17.056C277.45 17.376 277.231 17.5947 276.986 17.712C276.751 17.84 276.452 17.92 276.09 17.952C275.738 17.984 274.927 18 273.658 18C272.399 18 271.556 17.984 271.13 17.952C270.703 17.92 270.356 17.856 270.09 17.76C269.823 17.664 269.652 17.5147 269.578 17.312C269.514 17.1093 269.482 16.752 269.482 16.24V8.528C269.482 8.09067 269.466 7.65333 269.434 7.216C269.946 7.33333 270.431 7.47733 270.89 7.648C271.348 7.81867 271.578 7.96267 271.578 8.08C271.578 8.18667 271.348 8.304 270.89 8.432V15.728C270.89 16.0373 270.916 16.24 270.97 16.336C271.034 16.432 271.108 16.4907 271.194 16.512C271.279 16.5333 271.556 16.5547 272.026 16.576C272.495 16.608 272.991 16.624 273.514 16.624C274.719 16.624 275.418 16.512 275.61 16.288C275.802 16.0747 275.999 14.944 276.202 12.896H276.602ZM276.762 9.568C279.023 10.9333 280.154 12.1067 280.154 13.088C280.154 13.4187 280.036 13.76 279.802 14.112C279.567 14.464 279.348 14.64 279.146 14.64C278.836 14.64 278.639 14.3893 278.554 13.888C278.276 12.3627 277.599 11.024 276.522 9.872L276.762 9.568ZM267.61 10.24C267.77 11.0933 267.85 11.824 267.85 12.432C267.85 13.4133 267.652 14.1227 267.258 14.56C266.863 14.9867 266.468 15.2 266.074 15.2C265.85 15.2 265.647 15.12 265.466 14.96C265.284 14.7893 265.194 14.6187 265.194 14.448C265.194 14.2773 265.322 14.0747 265.578 13.84C266.196 13.264 266.607 12.7093 266.81 12.176C267.012 11.632 267.151 10.9867 267.226 10.24H267.61Z" fill="black"/>
</svg>
