<svg width="100" height="28" viewBox="0 0 100 28" fill="none" xmlns="http://www.w3.org/2000/svg">
<path d="M35.1937 23.8343L35.1585 23.8101L35.1344 23.8452C34.9622 24.1027 34.7374 24.3209 34.4746 24.4855C34.2443 24.6211 33.9813 24.6916 33.7138 24.6894C33.4966 24.6963 33.2806 24.6537 33.0825 24.5648C32.8843 24.4759 32.7091 24.343 32.5703 24.1763C32.2635 23.7861 32.1074 23.299 32.1304 22.8037C32.1039 22.2924 32.2528 21.7874 32.5527 21.3719C32.6806 21.2028 32.847 21.0665 33.0382 20.9743C33.2294 20.882 33.4399 20.8364 33.6522 20.8412C33.9469 20.8326 34.2349 20.9299 34.4636 21.1153C34.7048 21.3275 34.8777 21.6059 34.9606 21.9157V21.9464H35.2729V21.9025L35.2377 20.5343V20.4904H34.9518L34.9408 20.5145C34.9133 20.5708 34.8735 20.6203 34.8243 20.6593C34.7887 20.6896 34.7436 20.7066 34.6967 20.7075C34.6704 20.7075 34.4131 20.6176 34.3009 20.5825C34.0544 20.4955 33.795 20.4503 33.5334 20.4488C33.2033 20.4471 32.8773 20.5222 32.5813 20.668C32.2786 20.8242 32.0143 21.0451 31.8072 21.3149C31.6354 21.5342 31.5023 21.7811 31.4136 22.045C31.3242 22.3138 31.2789 22.5951 31.2794 22.8782C31.2713 23.2088 31.3376 23.537 31.4735 23.8387C31.6093 24.1404 31.8113 24.4079 32.0645 24.6214C32.2668 24.7985 32.5011 24.9355 32.755 25.0249C33.0186 25.1166 33.296 25.1626 33.5752 25.1608C33.9606 25.1778 34.3427 25.0834 34.6755 24.8888C35.0083 24.6943 35.2776 24.4081 35.451 24.0645L35.4708 24.0316L35.4378 24.0075L35.1937 23.8343Z" fill="#231815"/>
<path d="M39.0047 20.5605H38.9607V20.8653H39.0047C39.153 20.855 39.3009 20.8919 39.4269 20.9706C39.4698 21.0146 39.5025 21.0674 39.5226 21.1254C39.5427 21.1834 39.5499 21.245 39.5435 21.3061V22.4748H37.3994V21.3061C37.393 21.245 37.4001 21.1834 37.4202 21.1254C37.4404 21.0674 37.4731 21.0146 37.5159 20.9706C37.644 20.8928 37.7929 20.856 37.9426 20.8653H37.9865V20.5605H36.0822V20.8653H36.1239C36.2641 20.8572 36.4031 20.8949 36.5198 20.9728C36.5601 21.0178 36.5907 21.0706 36.6096 21.128C36.6285 21.1853 36.6354 21.2459 36.6297 21.3061V24.2991C36.6357 24.359 36.6292 24.4196 36.6107 24.4769C36.5921 24.5342 36.5619 24.5872 36.522 24.6324C36.4047 24.7108 36.2649 24.7486 36.1239 24.7398H36.0822V25.0512H37.9865V24.742H37.9426C37.7925 24.7526 37.643 24.7149 37.5159 24.6345C37.4729 24.5902 37.4401 24.537 37.42 24.4786C37.3998 24.4203 37.3928 24.3582 37.3994 24.2969V22.9221H39.5435V24.2969C39.5492 24.358 39.542 24.4196 39.5222 24.4778C39.5025 24.536 39.4708 24.5894 39.4291 24.6345C39.3022 24.7134 39.1539 24.7509 39.0047 24.742H38.9607V25.0512H40.8585V24.7442H40.8167C40.6765 24.7533 40.5372 24.7155 40.4209 24.6367C40.3805 24.5917 40.35 24.5389 40.331 24.4815C40.3121 24.4242 40.3053 24.3636 40.3109 24.3035V21.3083C40.3053 21.2481 40.3121 21.1875 40.331 21.1302C40.35 21.0728 40.3805 21.02 40.4209 20.975C40.5376 20.8971 40.6766 20.8594 40.8167 20.8675H40.8585V20.5627H39.0047V20.5605Z" fill="#231815"/>
<path d="M41.5336 20.5605H41.4897V20.6044V20.8237V20.8653H41.5314C41.681 20.8566 41.8298 20.8933 41.9581 20.9706C42.0005 21.0148 42.0328 21.0677 42.0526 21.1257C42.0723 21.1836 42.0791 21.2452 42.0724 21.3061V24.2969C42.0791 24.3577 42.0723 24.4193 42.0526 24.4773C42.0328 24.5352 42.0005 24.5882 41.9581 24.6324C41.8306 24.7115 41.6812 24.7484 41.5314 24.7376H41.4897V24.7793V24.9985V25.0424H43.4358V24.7442H43.3918C43.2429 24.7532 43.0948 24.7164 42.9674 24.6389C42.9248 24.5944 42.8924 24.5411 42.8726 24.4828C42.8529 24.4244 42.8462 24.3625 42.8531 24.3013V21.3083C42.8467 21.2472 42.8538 21.1856 42.8739 21.1276C42.8941 21.0696 42.9267 21.0168 42.9696 20.9728C43.0955 20.8938 43.2435 20.8569 43.3918 20.8675H43.4358V20.5627H41.5336V20.5605Z" fill="#231815"/>
<path d="M47.337 20.5605H47.293V20.8675H47.337C47.4834 20.854 47.6297 20.8946 47.7482 20.9815C47.7941 21.031 47.829 21.0896 47.8506 21.1535C47.8722 21.2173 47.88 21.285 47.8735 21.3521V23.718L45.3226 20.5759L45.3094 20.5605H44.067V20.8631H44.1065C44.2128 20.8692 44.3172 20.8945 44.4144 20.9377C44.4918 20.9713 44.5603 21.0223 44.6145 21.0868V24.2618C44.6207 24.3266 44.6138 24.3921 44.5941 24.4543C44.5745 24.5164 44.5425 24.574 44.5002 24.6236C44.3954 24.7055 44.2634 24.7446 44.1307 24.7332H44.067V25.0468H45.6789V24.7332H45.5887C45.454 24.7455 45.3196 24.7063 45.2127 24.6236C45.1702 24.574 45.1382 24.5165 45.1185 24.4543C45.0989 24.3921 45.092 24.3267 45.0983 24.2618V21.4946L48.0341 25.1082L48.0473 25.1235H48.3661V21.3521C48.3606 21.2868 48.3684 21.221 48.3892 21.1588C48.41 21.0966 48.4433 21.0393 48.4871 20.9903C48.5947 20.9016 48.7325 20.8576 48.8719 20.8675H48.9159V20.5627H47.348L47.337 20.5605Z" fill="#231815"/>
<path d="M53.756 24.6126C53.6303 24.5041 53.5336 24.3663 53.4745 24.2114L51.8362 20.5869V20.5605H51.5064L51.4954 20.5847L49.7889 24.2355C49.7296 24.3744 49.6445 24.5008 49.5382 24.6082C49.4468 24.6836 49.3351 24.7301 49.2171 24.742H49.1797V25.049H50.7851V24.742H50.7477C50.6116 24.7286 50.4795 24.6892 50.3584 24.6258C50.3303 24.6054 50.3079 24.5781 50.2933 24.5467C50.2787 24.5152 50.2723 24.4806 50.2749 24.446C50.2744 24.4008 50.2803 24.3557 50.2925 24.3122C50.3054 24.2582 50.323 24.2053 50.3452 24.1543L50.5652 23.604H52.3486L52.5949 24.1522C52.6189 24.2052 52.638 24.2602 52.6521 24.3166C52.6629 24.3656 52.6688 24.4155 52.6697 24.4657C52.6722 24.5028 52.664 24.5399 52.646 24.5725C52.6281 24.6052 52.6012 24.632 52.5685 24.6499C52.4496 24.7081 52.3183 24.7367 52.1859 24.7332H52.1441V24.7749V24.9941V25.038H54.1826V24.7442H54.1408C54.0018 24.7419 53.8672 24.6958 53.756 24.6126ZM52.1485 23.1654H50.7675L51.4866 21.6086L52.1485 23.1654Z" fill="#231815"/>
<path d="M61.3757 23.8345L61.3405 23.8104L61.3141 23.8455C61.142 24.1029 60.9172 24.3211 60.6544 24.4857C60.4242 24.6216 60.1611 24.6921 59.8935 24.6896C59.6764 24.6962 59.4606 24.6535 59.2625 24.5646C59.0643 24.4757 58.8891 24.343 58.75 24.1765C58.4422 23.7869 58.286 23.2994 58.3102 22.8039C58.2844 22.2928 58.4332 21.788 58.7325 21.3721C58.8604 21.2031 59.0268 21.0668 59.218 20.9745C59.4092 20.8823 59.6196 20.8367 59.832 20.8415C60.1266 20.8333 60.4145 20.9305 60.6434 21.1156C60.8855 21.3269 61.0586 21.6056 61.1404 21.9159V21.9466H61.4549V21.9027L61.4021 20.5323V20.4885H61.125L61.114 20.5126C61.0866 20.5683 61.0476 20.6177 60.9997 20.6573C60.9628 20.6869 60.9173 20.7038 60.8699 20.7055C60.8457 20.7055 60.5951 20.62 60.4741 20.5806C60.2276 20.4936 59.9682 20.4483 59.7066 20.4468C59.3765 20.4452 59.0505 20.5203 58.7544 20.6661C58.4518 20.8223 58.1875 21.0431 57.9804 21.3129C57.8148 21.5355 57.6871 21.7836 57.6021 22.0475C57.5135 22.3163 57.4689 22.5977 57.4702 22.8807C57.4664 23.2131 57.5331 23.5427 57.6659 23.8476C57.8026 24.1465 58.0039 24.4116 58.2553 24.6239C58.4564 24.8014 58.6902 24.9384 58.9436 25.0273C59.2071 25.1192 59.4846 25.1652 59.7638 25.1633C60.1491 25.1797 60.5309 25.085 60.8636 24.8906C61.1963 24.6961 61.4657 24.4101 61.6396 24.0669L61.6594 24.034L61.6264 24.0099L61.3757 23.8345Z" fill="#231815"/>
<path d="M62.2729 20.5605H62.2202V20.8653H62.2641C62.4131 20.8562 62.5612 20.8929 62.6886 20.9706C62.7314 21.0146 62.7641 21.0674 62.7842 21.1254C62.8044 21.1834 62.8115 21.245 62.8051 21.3061V24.2969C62.8115 24.3579 62.8044 24.4196 62.7842 24.4775C62.7641 24.5355 62.7314 24.5884 62.6886 24.6324C62.5621 24.7119 62.4133 24.7488 62.2641 24.7376H62.2202V25.0512H64.1663V24.7442H64.1223C63.9727 24.7528 63.824 24.7161 63.6957 24.6389C63.6544 24.5936 63.6231 24.5401 63.6038 24.4819C63.5844 24.4238 63.5776 24.3622 63.5836 24.3013V21.3083C63.5772 21.2472 63.5843 21.1856 63.6044 21.1276C63.6246 21.0696 63.6572 21.0168 63.7001 20.9728C63.8259 20.8935 63.9739 20.8566 64.1223 20.8675H64.1663V20.5627H62.2641L62.2729 20.5605Z" fill="#231815"/>
<path d="M68.6898 20.6022V20.5605H64.7315V20.6022L64.6721 21.6876V21.7336H64.9778V21.6985C65.0033 21.4818 65.1017 21.28 65.2571 21.1263C65.4533 21.0019 65.6852 20.9456 65.9168 20.9662H66.3302V24.3013C66.337 24.3628 66.3298 24.4251 66.3093 24.4835C66.2887 24.542 66.2553 24.5951 66.2115 24.6389C66.0852 24.7191 65.9364 24.7568 65.787 24.7464H65.7387V25.0555H67.6826V24.7442H67.6386C67.4905 24.756 67.3424 24.7199 67.2164 24.6411C67.1747 24.596 67.143 24.5426 67.1233 24.4844C67.1036 24.4262 67.0964 24.3646 67.1021 24.3035V20.9728H67.4979C67.7295 20.9526 67.9613 21.0088 68.1576 21.1328C68.3142 21.2855 68.4123 21.4879 68.4347 21.7051V21.7402H68.747V21.6942L68.6898 20.6022Z" fill="#231815"/>
<path d="M69.2901 20.5605H69.244V20.8653H69.2857C69.4354 20.8563 69.5842 20.893 69.7124 20.9706C69.755 21.0147 69.7875 21.0676 69.8076 21.1255C69.8277 21.1835 69.835 21.2451 69.8289 21.3061V24.2969C69.8353 24.3579 69.8282 24.4196 69.8081 24.4775C69.7879 24.5355 69.7552 24.5884 69.7124 24.6324C69.5856 24.7112 69.437 24.7481 69.2879 24.7376H69.2572V25.0512H71.2011V24.7442H71.1571C71.0083 24.7525 70.8604 24.7158 70.7327 24.6389C70.6902 24.5944 70.6581 24.541 70.6387 24.4826C70.6193 24.4242 70.6131 24.3623 70.6206 24.3013V21.3083C70.6137 21.2474 70.6204 21.1858 70.6402 21.1278C70.66 21.0698 70.6923 21.0169 70.7349 20.9728C70.861 20.8941 71.0088 20.8572 71.1571 20.8675H71.2011V20.5627H69.3011L69.2901 20.5605Z" fill="#231815"/>
<path d="M75.8103 23.8343L75.7729 23.8102L75.7488 23.8452C75.5766 24.1027 75.3518 24.3209 75.089 24.4855C74.8588 24.6214 74.5957 24.6919 74.3282 24.6894C74.111 24.696 73.8952 24.6532 73.6971 24.5643C73.499 24.4755 73.3237 24.3428 73.1847 24.1763C72.8784 23.7858 72.7224 23.2989 72.7448 22.8037C72.7197 22.2926 72.8685 21.788 73.1671 21.3719C73.2954 21.2032 73.4619 21.0672 73.653 20.975C73.8441 20.8828 74.0543 20.837 74.2666 20.8413C74.5619 20.8329 74.8505 20.9301 75.0802 21.1153C75.32 21.3279 75.4913 21.6063 75.5728 21.9157L75.5838 21.9464H75.8961V21.9025L75.8543 20.5343V20.4904H75.5772L75.564 20.5145C75.5366 20.5703 75.4976 20.6196 75.4497 20.6593C75.4139 20.6893 75.3689 20.7063 75.3221 20.7075C75.2936 20.7075 75.0165 20.611 74.9263 20.5825C74.679 20.4955 74.4189 20.4503 74.1566 20.4488C73.8272 20.4469 73.5018 20.522 73.2067 20.668C72.9034 20.8241 72.6383 21.045 72.4304 21.3149C72.2594 21.5356 72.1264 21.7831 72.0368 22.0472C71.9481 22.3153 71.9036 22.596 71.9048 22.8783C71.8997 23.2108 71.9665 23.5406 72.1005 23.8452C72.238 24.1436 72.4392 24.4085 72.6899 24.6214C72.8907 24.7994 73.1246 24.9364 73.3782 25.0249C73.6424 25.117 73.9207 25.163 74.2006 25.1608C74.5856 25.1774 74.9673 25.0827 75.2996 24.8882C75.632 24.6938 75.901 24.4077 76.0742 24.0645L76.094 24.0316L76.061 24.0075L75.8103 23.8343Z" fill="#231815"/>
<path d="M82.2316 22.6725C82.4609 22.6064 82.6712 22.4869 82.8451 22.3238C82.9343 22.2361 83.0045 22.1312 83.0514 22.0154C83.0983 21.8996 83.1209 21.7755 83.1178 21.6507C83.1246 21.491 83.0897 21.3322 83.0164 21.19C82.9432 21.0478 82.8342 20.927 82.7 20.8394C82.3462 20.6314 81.9378 20.5344 81.5279 20.5609H79.3728V20.8657H79.4146C79.5554 20.8582 79.6949 20.8958 79.8126 20.9731C79.8529 21.0186 79.8832 21.0719 79.9018 21.1296C79.9203 21.1874 79.9267 21.2483 79.9204 21.3086V24.2972C79.9267 24.3576 79.9203 24.4185 79.9018 24.4763C79.8832 24.534 79.8529 24.5873 79.8126 24.6327C79.6956 24.7115 79.5556 24.7493 79.4146 24.7402H79.3728V25.0515H81.6665C82.0903 25.0684 82.5078 24.9451 82.8539 24.7007C83 24.6002 83.1195 24.4659 83.2022 24.3094C83.2849 24.1528 83.3284 23.9786 83.3289 23.8017C83.3334 23.6554 83.3061 23.5098 83.2488 23.3751C83.1914 23.2403 83.1055 23.1196 82.9969 23.0211C82.7772 22.8395 82.5131 22.7192 82.2316 22.6725ZM81.33 20.9731C81.5923 20.9549 81.8536 21.021 82.0755 21.1617C82.1577 21.2268 82.2228 21.311 82.265 21.407C82.3071 21.5029 82.3251 21.6076 82.3174 21.7121C82.3237 21.8242 82.3029 21.9361 82.2565 22.0384C82.2102 22.1407 82.1398 22.2304 82.0513 22.2997C81.8152 22.4522 81.5359 22.5245 81.2552 22.5058H80.6923V20.971L81.33 20.9731ZM80.6923 22.9268H81.4553C81.7344 22.9113 82.0099 22.9961 82.2316 23.1658C82.3227 23.244 82.3947 23.342 82.442 23.4522C82.4892 23.5624 82.5106 23.682 82.5043 23.8017C82.5115 23.9234 82.4867 24.045 82.4323 24.1542C82.378 24.2634 82.2959 24.3566 82.1942 24.4244C81.9119 24.5875 81.5875 24.6638 81.2618 24.6437C81.1006 24.6606 80.9377 24.6357 80.789 24.5713C80.7472 24.5384 80.6945 24.4507 80.6945 24.2139L80.6923 22.9268Z" fill="#231815"/>
<path d="M88.2218 24.6126C88.0974 24.5035 88.0016 24.3657 87.9426 24.2114L86.3043 20.5869V20.5605H85.97L85.959 20.5847L84.2503 24.2355C84.193 24.3754 84.1077 24.5022 83.9997 24.6082C83.9093 24.6839 83.7982 24.7305 83.6808 24.742H83.6412V25.049H85.2531V24.742H85.2179C85.0817 24.7298 84.9493 24.6903 84.8287 24.6258C84.8002 24.6056 84.7773 24.5785 84.7623 24.547C84.7473 24.5155 84.7406 24.4808 84.7429 24.446C84.7425 24.4009 84.7477 24.356 84.7583 24.3122C84.7721 24.2588 84.7905 24.2067 84.8133 24.1565L85.0442 23.6128H86.8276L87.0761 24.1609C87.1 24.213 87.1184 24.2674 87.1311 24.3232C87.1436 24.3727 87.1502 24.4235 87.1509 24.4745C87.1534 24.5116 87.1452 24.5487 87.1273 24.5813C87.1094 24.6139 87.0825 24.6408 87.0497 24.6587C86.9301 24.717 86.7981 24.7456 86.6649 24.742H86.6297V24.7836V25.0029V25.0468H88.6683V24.7442H88.6089C88.4696 24.7399 88.3348 24.6941 88.2218 24.6126ZM86.6165 23.1567H85.2355L85.9546 21.5999L86.6165 23.1567Z" fill="#231815"/>
<path d="M92.2483 20.5605H92.2044V20.8675H92.2483C92.3957 20.8551 92.5426 20.8964 92.6618 20.9837C92.707 21.0331 92.7413 21.0914 92.7625 21.1549C92.7837 21.2183 92.7914 21.2855 92.7849 21.3521V23.718L90.234 20.5759L90.2208 20.5605H88.9783V20.8631H89.0179C89.1242 20.8692 89.2285 20.8945 89.3258 20.9377C89.4035 20.9707 89.4721 21.0218 89.5259 21.0868V24.2618C89.5321 24.3266 89.5252 24.3921 89.5055 24.4543C89.4859 24.5164 89.4539 24.574 89.4115 24.6236C89.3062 24.706 89.1733 24.7452 89.0399 24.7332H88.9783V25.0468H90.588V24.7332H90.5001C90.3647 24.7451 90.2297 24.706 90.1218 24.6236C90.0799 24.5737 90.0482 24.5161 90.0286 24.454C90.009 24.3919 90.0018 24.3266 90.0075 24.2618V21.4946L92.9454 25.1082L92.9586 25.1235H93.2687V21.3521C93.2626 21.2869 93.27 21.2212 93.2904 21.1589C93.3108 21.0967 93.3439 21.0393 93.3874 20.9903C93.4957 20.9025 93.6331 20.8587 93.7723 20.8675H93.8163V20.5627H92.2483V20.5605Z" fill="#231815"/>
<path d="M99.006 24.742C98.8585 24.74 98.7148 24.695 98.5926 24.6126C98.4237 24.4735 98.2808 24.3058 98.1704 24.1171L96.9873 22.3191L98.1638 21.2688C98.2809 21.162 98.4118 21.0713 98.553 20.9991C98.6823 20.9334 98.821 20.8883 98.9643 20.8653H99.0016V20.5649H97.0401V20.8675H97.0819C97.2193 20.8684 97.3552 20.8959 97.4821 20.9487C97.5089 20.9617 97.5312 20.9825 97.5461 21.0083C97.561 21.034 97.5678 21.0637 97.5656 21.0934C97.5618 21.1426 97.5425 21.1893 97.5107 21.2271C97.4478 21.3057 97.3787 21.379 97.304 21.4464L95.7382 22.8563V21.3214C95.7323 21.262 95.7386 21.2019 95.7567 21.145C95.7749 21.0881 95.8045 21.0354 95.8438 20.9903C95.9618 20.9134 96.1009 20.875 96.2418 20.8807H96.2836V20.839V20.6198V20.5759H94.4144V20.8807H94.4584C94.5979 20.8725 94.7362 20.9103 94.852 20.9881C94.8937 21.0323 94.9253 21.085 94.9446 21.1425C94.964 21.2001 94.9707 21.2611 94.9642 21.3214V24.3144C94.9698 24.3745 94.963 24.4352 94.9441 24.4925C94.9251 24.5499 94.8946 24.6027 94.8542 24.6477C94.7379 24.7265 94.5986 24.7643 94.4584 24.7552H94.4144V25.0665H96.2836V25.0227V24.8034V24.7617H96.2418C96.1016 24.7702 95.9625 24.7324 95.846 24.6543C95.8053 24.6095 95.7747 24.5567 95.7561 24.4992C95.7375 24.4418 95.7314 24.381 95.7382 24.321V23.4505L96.398 22.8585L97.2996 24.2289C97.3551 24.3083 97.4043 24.3919 97.4469 24.4789C97.4666 24.5193 97.4779 24.5633 97.4799 24.6082C97.4799 24.6346 97.4799 24.6696 97.3897 24.7003C97.2807 24.7328 97.167 24.7469 97.0533 24.742H97.0093V25.0555H99.0544V24.7442L99.006 24.742Z" fill="#231815"/>
<path d="M16.3456 8.36489V24.7661C17.1426 24.5695 17.9166 24.2895 18.6546 23.9307V5.16357C18.2644 5.33358 17.8954 5.54846 17.5551 5.80384C17.1625 6.10227 16.8484 6.49118 16.6396 6.93724C16.4309 7.38331 16.3338 7.87318 16.3566 8.36489" fill="#D7000F"/>
<path d="M9.60109 5.80384C9.26086 5.54841 8.89185 5.33353 8.50156 5.16357V23.9329C9.23847 24.2919 10.0118 24.5713 10.8084 24.7661V8.36489C10.8316 7.87313 10.7346 7.38311 10.5259 6.937C10.3171 6.49088 10.0027 6.10201 9.60988 5.80384" fill="#D7000F"/>
<path d="M18.1686 2.90551C16.7194 2.2849 15.1587 1.96484 13.5814 1.96484C12.0041 1.96484 10.4434 2.2849 8.99416 2.90551C8.77426 3.01953 8.47958 3.23442 8.47958 3.57867C8.47958 4.19263 9.33062 4.06325 10.3972 4.90961C10.8722 5.28009 11.2547 5.75513 11.5149 6.29758C11.7751 6.84003 11.9058 7.43516 11.8969 8.03637V24.988C13.009 25.1487 14.1384 25.1487 15.2505 24.988V8.03637C15.2415 7.43569 15.372 6.84103 15.6318 6.29898C15.8916 5.75693 16.2736 5.28215 16.748 4.91181C17.8146 4.06544 18.6678 4.1948 18.6678 3.58086C18.6678 3.24538 18.3841 3.03269 18.1686 2.92305" fill="#D7000F"/>
<path d="M13.5704 25.9394C11.1086 25.9394 8.70205 25.2114 6.65516 23.8476C4.60828 22.484 3.01295 20.5455 2.07096 18.2777C1.12897 16.0098 0.882609 13.5143 1.36304 11.1068C1.84348 8.69937 3.02914 6.48803 4.77004 4.75246C6.51097 3.01691 8.72896 1.83508 11.1435 1.35646C13.5581 0.877846 16.0608 1.12393 18.335 2.06359C20.6094 3.00325 22.5531 4.5943 23.9205 6.63549C25.2879 8.67667 26.0175 11.0763 26.0171 13.531C26.0171 15.1607 25.6951 16.7744 25.0695 18.28C24.4441 19.7856 23.5273 21.1536 22.3715 22.3059C21.2156 23.4582 19.8434 24.3721 18.3334 24.9955C16.8233 25.619 15.2048 25.9396 13.5704 25.9394ZM13.5704 0C10.8864 0 8.26272 0.793581 6.03109 2.28039C3.79945 3.7672 2.0601 5.88046 1.03299 8.35292C0.00587873 10.8254 -0.262858 13.546 0.260757 16.1708C0.784373 18.7956 2.07683 21.2066 3.97469 23.099C5.87254 24.9913 8.29054 26.2799 10.9229 26.802C13.5554 27.3241 16.2839 27.0561 18.7636 26.0322C21.2432 25.0079 23.3626 23.2735 24.8538 21.0485C26.3449 18.8233 27.1408 16.2072 27.1408 13.531C27.1408 11.7541 26.7898 9.99458 26.1079 8.35292C25.4257 6.71127 24.4263 5.21961 23.1662 3.96314C21.906 2.70667 20.41 1.70999 18.7636 1.02999C17.1171 0.349989 15.3525 0 13.5704 0Z" fill="#D7000F"/>
<path d="M1.96594 13.5311C1.96532 15.4807 2.45914 17.3988 3.40149 19.1071C4.34385 20.8154 5.70412 22.2583 7.35584 23.3017V14.441C6.0364 14.4739 5.55041 15.2721 5.40307 15.5834C5.28212 15.8356 5.20296 16.1053 4.96326 16.1053C4.58062 16.1053 4.27056 15.0089 4.27056 13.6363C4.27056 12.2637 4.58062 11.1696 4.96326 11.1696C5.18317 11.1696 5.27113 11.4371 5.40307 11.6914C5.55041 12.0028 6.0364 12.7987 7.35584 12.8316V3.7583C5.70382 4.8019 4.34332 6.24517 3.40096 7.95384C2.45859 9.66251 1.96495 11.5811 1.96594 13.5311Z" fill="#D7000F"/>
<path d="M23.277 15.5832C23.1561 15.8353 23.0791 16.105 22.8504 16.105C22.4656 16.105 22.1555 15.0087 22.1555 13.6361C22.1555 12.2635 22.4656 11.1693 22.8504 11.1693C23.0703 11.1693 23.1561 11.4368 23.277 11.6912C23.4222 11.996 23.8906 12.7678 25.1506 12.8292C25.0399 11.0012 24.4951 9.22566 23.561 7.64888C22.627 6.07213 21.3304 4.73929 19.7783 3.76025V23.2992C21.2978 22.3384 22.5723 21.0382 23.5009 19.5015C24.4295 17.9647 24.9867 16.2337 25.1286 14.4452C23.8774 14.5132 23.4134 15.2806 23.2682 15.5832" fill="#D7000F"/>
<path d="M36.3922 0.962412C35.7325 0.9361 35.7325 1.09178 35.7325 1.21676C35.7325 1.34174 35.8666 1.50839 35.9678 1.87456C36.0272 2.09383 36.1877 2.3131 36.3042 3.76246C36.3218 4.32598 36.3328 4.91362 36.3372 5.29734C35.8974 5.34338 32.5988 5.59773 32.4801 5.6087C31.286 5.17016 30.424 5.24471 30.3404 5.56046C30.2964 5.72272 30.3954 5.87621 30.5053 6.15029C30.9147 7.50697 31.2219 8.89219 31.4245 10.2945V10.2835C31.6203 11.4522 31.9259 11.86 32.0139 11.9324C32.0869 12.0125 32.1839 12.0671 32.2904 12.088C32.3969 12.1089 32.5074 12.0951 32.6054 12.0486C32.7506 11.9762 32.9551 11.7657 33.1068 11.2176C33.4697 11.1825 35.7457 11.0422 36.2317 10.9983C36.1569 15.8529 36.5659 16.6993 36.6451 17.0106C36.6869 17.1795 36.7595 17.2759 36.8408 17.2694C36.9222 17.2628 37.0739 17.129 37.1619 16.9799C37.307 16.7278 37.4807 16.5107 37.6347 15.2784C37.7028 14.5789 37.7578 14.489 37.8172 13.351L37.8788 12.2152C37.8788 11.7285 37.8788 11.2768 37.8788 10.847C39.4181 10.7593 41.1554 10.7133 41.6831 10.7133C42.3758 10.7133 42.8882 10.744 43.0466 10.6168C43.2049 10.4896 43.1367 10.1892 43.0136 9.93485C42.941 9.78137 42.8377 9.59937 42.6485 9.27705C43.5062 7.85839 43.8294 6.57567 44.0054 6.3564L44.1945 6.18318C44.4694 5.92444 44.5155 5.8477 44.5441 5.74464C44.5727 5.64159 44.4276 5.45521 44.4276 5.45521C43.9878 4.9487 43.526 4.70531 42.4924 4.27993L42.378 4.25582C42.2306 4.29092 42.0881 4.34394 41.9536 4.41369C41.8591 4.47289 40.5638 4.70531 38.0503 5.04737C38.1559 3.12658 38.2944 2.71217 38.3472 2.58499C38.376 2.52106 38.4098 2.45948 38.4483 2.40081C38.4992 2.32349 38.5323 2.23587 38.5451 2.14427C38.5402 2.06364 38.5094 1.98673 38.4571 1.925C38.2015 1.62728 37.885 1.3874 37.5289 1.2214C37.1728 1.0554 36.7853 0.967105 36.3922 0.962412ZM36.3174 6.47042C36.3174 6.97255 36.291 9.42177 36.2867 9.81864C35.8974 9.85811 33.4741 10.0226 33.0342 10.0708C32.9947 9.63226 32.634 7.06683 32.8891 6.88265C33.1442 6.69846 35.7017 6.477 36.3174 6.47042ZM41.6941 6.07355C41.7098 6.13959 41.7165 6.20745 41.7139 6.27527C41.7175 6.53039 41.6909 6.78503 41.6348 7.03394C41.45 7.87374 41.2257 9.06217 41.096 9.20469C41.0102 9.25512 39.8953 9.40861 37.9118 9.64323C37.9118 9.1411 37.9601 6.75328 37.9689 6.35421C40.2296 6.13933 41.5314 6.0275 41.6941 6.07355Z" fill="#231815"/>
<path d="M55.2316 2.1422C54.9083 2.23429 55.0732 2.42506 55.0732 2.42506C55.8385 3.36572 56.452 3.91827 57.4922 4.43573H57.6637C57.8836 4.37653 58.2663 4.16823 58.2575 3.43807V3.43149C58.2422 3.22139 58.1826 3.01688 58.0825 2.83134C57.9825 2.64581 57.8443 2.48345 57.6769 2.35489C57.4438 2.16413 57.0656 2.04353 56.5246 1.98652H56.5026C56.0733 1.96951 55.644 2.02209 55.2316 2.1422Z" fill="#231815"/>
<path d="M50.4816 2.19245C50.4816 2.26042 50.5124 2.38979 50.5366 2.68361C50.5418 2.81564 50.5337 2.94787 50.5124 3.07829C50.2352 4.07901 49.8395 5.04327 49.3337 5.95071C48.6154 7.19071 47.7883 8.36474 46.862 9.45899C46.3738 10.0159 46.2704 10.1036 46.0967 10.2791C45.9537 10.4216 45.7338 10.5729 45.8328 10.6715C45.8878 10.7702 46.5563 10.6715 47.4557 10.0708C48.1462 9.61248 48.9005 8.93275 49.8747 7.72678C49.9252 8.18066 49.9648 8.69813 49.989 9.28796C50.0022 9.59713 50.0088 9.89972 50.0088 10.1913C50.0088 10.2878 50.0088 10.3821 50.0088 10.4742C49.9978 10.8404 49.978 11.1759 49.9516 11.4697C49.8874 12.4684 49.7246 13.4585 49.4656 14.4254L49.4217 14.6447V14.6622C49.4854 15.7081 50.1342 16.5019 50.3651 16.5567C50.5476 16.6005 50.8049 16.1993 50.8049 16.1993C50.9478 15.9581 51.1413 15.616 51.1985 14.7017V14.682C51.2623 9.29893 51.3151 8.16531 51.3414 8.02717V8.03594L51.3524 7.97894L51.37 7.70266V7.66977C51.37 7.3014 51.1633 6.90014 50.7433 6.44625L50.7741 6.4024C51.1523 5.90247 51.3942 5.50121 51.5657 5.24905C51.8318 4.86752 52.0847 4.50354 52.353 4.1527C52.6213 3.80187 52.6323 3.77776 52.6609 3.644C52.6612 3.59521 52.6553 3.54658 52.6433 3.49928C52.4454 2.71211 51.7637 2.23411 50.7895 2.00168C50.7851 1.9951 50.4816 1.9074 50.4816 2.19245Z" fill="#231815"/>
<path d="M59.2206 4.7582C58.6885 4.88976 55.5724 5.44013 52.4563 5.73395C52.2204 5.72755 51.9856 5.76856 51.7658 5.85454C51.6559 5.95321 51.4866 6.07381 51.7438 6.32816C51.7438 6.32816 52.4607 6.97061 53.0237 7.10656H53.1358C53.4595 7.05849 53.7782 6.98142 54.088 6.87633C54.4029 6.80204 54.7215 6.74422 55.0424 6.70311C57.0216 6.2865 57.8902 6.08916 60.8282 6.16371C60.8282 6.16371 61.4659 6.2273 61.7078 6.2273C61.9497 6.2273 62.3323 6.26677 62.4972 5.96637C62.6292 5.72517 62.4093 5.39847 62.2136 5.20113C61.9387 4.92704 61.0942 4.3986 60.2916 4.52578C59.9296 4.57798 59.5717 4.65565 59.2206 4.7582Z" fill="#231815"/>
<path d="M58.9216 7.21826C58.0949 7.29593 57.2743 7.42851 56.4652 7.61514C55.7106 7.79104 54.9451 7.91702 54.1738 7.99228C53.9891 8.01201 53.6285 8.06025 53.5141 8.21155C53.4547 8.28829 53.5383 8.5273 53.745 8.72464C53.906 8.86209 54.0932 8.96575 54.2954 9.02942C54.4975 9.09309 54.7105 9.11546 54.9215 9.0952C54.9215 9.0952 57.2701 8.91321 58.8798 8.66763L59.4559 8.5843C59.8056 8.51633 60.1487 8.54483 60.2894 8.39135C60.4301 8.23786 60.2432 7.94185 60.0321 7.72258C59.8937 7.56452 59.723 7.43776 59.5315 7.35079C59.34 7.26381 59.132 7.21863 58.9216 7.21826Z" fill="#231815"/>
<path d="M58.8666 9.43314C57.7644 9.51861 56.6709 9.69239 55.5966 9.95281C54.6576 10.1918 54.4641 10.2269 54.4245 10.2335C53.9517 10.3014 53.6262 10.2576 53.5955 10.5097C53.6045 10.5695 53.6215 10.6277 53.646 10.683C53.7168 10.8052 53.8101 10.9131 53.9209 11.0009L53.9671 11.0382C54.2599 11.2355 54.6153 11.3183 54.9655 11.2706H54.9809C56.3685 11.1303 58.8886 10.9285 59.6297 10.7466L59.8496 10.7027C60.1135 10.6457 60.329 10.6567 60.329 10.4177C60.329 10.1786 60.1245 9.96377 59.9727 9.79713L59.9485 9.77301C59.8119 9.62952 59.6409 9.52303 59.4516 9.46357C59.2624 9.40412 59.061 9.39365 58.8666 9.43314Z" fill="#231815"/>
<path d="M58.6203 11.8118C58.6203 11.8118 56.076 12.3555 54.5345 12.4367C54.4817 12.4367 54.3761 12.4169 54.1518 12.3819C53.4921 12.281 53.1974 12.3139 53.1007 12.4126L53.0875 12.4235C52.8808 12.6318 53.0259 12.7919 53.0875 12.9059L53.2084 13.1778C53.259 13.3313 53.3822 13.6163 53.9099 15.7695C54.0265 16.3462 54.2046 16.6466 54.4355 16.8659L54.5872 16.9426C54.6499 16.9495 54.7133 16.94 54.7711 16.915C54.829 16.89 54.8793 16.8504 54.9171 16.8001C55.0319 16.6197 55.1277 16.4279 55.203 16.2278C56.5224 16.1072 58.3916 16.0239 58.981 15.98C60.2234 15.9011 60.3884 15.8375 60.4521 15.6051C60.4917 15.4604 60.3158 15.1249 60.1267 14.8113C60.6281 14.0899 60.6061 14.0768 60.8128 13.8268C61.0195 13.5769 61.3691 13.3532 61.4087 13.0879C61.4483 12.8226 60.7292 12.1143 59.3812 11.61L59.302 11.5925C59.1965 11.5793 59.0381 11.6429 58.6203 11.8118ZM55.513 13.4409C56.6448 13.2198 57.7973 13.122 58.9502 13.1493C58.8182 13.8071 58.8006 14.3794 58.5983 14.807C58.0903 14.8859 56.3663 15.0043 55.236 15.1512C55.181 14.7938 55.0666 13.8795 55.0161 13.5264L55.513 13.4409Z" fill="#231815"/>
<path d="M88.4638 1.10739C88.3951 1.08628 88.3224 1.08224 88.2519 1.09562C88.1813 1.10899 88.1152 1.13938 88.0591 1.18413C87.9364 1.39866 87.8899 1.64821 87.9272 1.89237C87.9492 2.08971 87.8832 2.24539 87.4874 2.88127C86.8145 3.79796 86.0617 4.65349 85.2377 5.43793C84.8749 5.76902 84.0348 6.41148 84.125 6.55619C84.2152 6.70091 85.2641 6.43121 85.9348 6.11766C86.4098 5.89839 87.1333 5.33706 88.4198 4.1289C88.7623 3.79015 89.1251 3.47236 89.5061 3.17728C89.6328 3.10463 89.7394 3.00163 89.8162 2.87759C89.893 2.75355 89.9376 2.61239 89.9459 2.46685C89.9523 2.38485 89.9403 2.30244 89.9107 2.22566C89.3896 1.41437 88.8288 1.1929 88.4638 1.10739Z" fill="#231815"/>
<path d="M95.3908 2.69701C95.0963 2.78222 94.8076 2.88622 94.5265 3.00838H94.5089C93.5082 3.38244 92.4869 3.69943 91.45 3.9578C90.9728 4.06524 90.544 4.10471 90.533 4.29986C90.522 4.49501 90.6936 4.68139 90.9113 4.84364C91.129 5.0059 91.6568 5.33041 92.7057 5.10237C93.4314 4.94231 97.0115 4.06963 97.2732 3.83501C97.3117 3.81575 97.346 3.78894 97.374 3.75616C97.4019 3.72338 97.423 3.68532 97.4359 3.64425C97.4821 3.42498 97.0115 3.04346 96.8663 2.93821C96.3056 2.53476 95.5733 2.65316 95.3908 2.69701Z" fill="#231815"/>
<path d="M88.0767 5.11749C87.8962 5.26006 87.7761 5.46514 87.7402 5.69197C87.7402 5.69197 87.6501 6.4002 86.6407 7.75309C85.6357 8.93713 85.363 9.38883 84.1338 10.3076C83.4543 10.8141 82.8935 11.1386 83.1024 11.2701C83.2608 11.371 84.3163 11.1517 85.0816 10.7965C85.6973 10.5137 85.8556 10.5422 86.8408 9.52477C86.8694 9.86025 86.8892 10.1826 86.8892 10.5202C86.8892 11.5969 86.986 12.873 86.6693 13.8268C86.5945 14.0461 86.5351 14.2105 86.5308 14.2653C86.4976 14.3609 86.4733 14.4592 86.4582 14.5592C86.4736 14.8093 86.541 15.0534 86.6561 15.2762C86.8121 15.5724 86.9985 15.8516 87.2125 16.1094C87.373 16.2848 87.5643 16.4624 87.7666 16.4032C87.9689 16.344 88.2064 15.4604 88.2218 14.5767C88.2372 13.6931 88.2218 13.0594 88.2328 11.257C88.2294 10.9986 88.2397 10.7403 88.2636 10.483C88.2834 10.2418 88.3274 9.9962 88.3274 9.84271C88.3274 9.36471 88.1295 9.0687 87.7512 8.59727C87.9469 8.40212 88.2108 8.11927 88.5517 7.73555C88.7837 7.46778 89.0407 7.22255 89.3192 7.00319C89.4361 6.90588 89.5319 6.78575 89.6006 6.65017C89.6193 6.61466 89.6291 6.57515 89.6291 6.53505C89.6291 6.49495 89.6193 6.45545 89.6006 6.41994C89.3768 5.89207 88.9972 5.44466 88.5121 5.13722C88.4475 5.09649 88.3734 5.07325 88.297 5.06979C88.2207 5.06633 88.1447 5.08277 88.0767 5.11749Z" fill="#231815"/>
<path d="M96.1231 6.43328C95.6635 6.58677 93.4842 7.12836 90.2956 7.66995C89.9217 7.73134 89.5743 7.74012 89.4951 7.91991C89.4159 8.09971 89.5897 8.32995 89.7436 8.44397C90.0847 8.67815 90.4765 8.82844 90.8871 8.88251H90.9443C91.2181 8.8597 91.4887 8.80752 91.7513 8.72683L91.7931 8.71148C91.9625 8.63473 92.1604 8.57115 93.7415 8.3146C93.9284 8.98776 94.045 10.1279 94.0889 11.7176C94.0889 11.8777 94.0889 12.0268 94.0889 12.1693C94.0889 13.6735 93.9834 14.1778 93.9262 14.3423C93.8294 14.3423 93.6491 14.3028 93.3061 14.2305C92.488 14.0287 91.6304 13.5551 91.7184 13.9301C91.7601 14.1077 92.2659 14.5879 92.6815 15.1075C92.9711 15.4468 93.2261 15.8141 93.4424 16.2039C93.6799 16.6424 93.7965 17.0568 94.1791 16.9209C94.661 16.7203 95.077 16.3891 95.3798 15.9649C95.6033 15.6657 95.7443 15.3134 95.7888 14.9431C95.8416 14.3861 95.5953 13.52 95.5469 12.814C95.4897 11.961 95.4897 11.2791 95.4897 10.959V10.1038C95.4958 9.8274 95.5356 9.55274 95.6085 9.28596C95.6743 9.16214 95.7105 9.02479 95.714 8.8847C95.714 8.79767 95.7006 8.71117 95.6745 8.62816C95.5869 8.40053 95.4339 8.20375 95.2346 8.06244C95.9957 7.96929 96.7615 7.91951 97.5283 7.91334C98.0802 7.90237 98.6014 7.87387 98.8477 7.87606C99.094 7.87825 99.7559 7.87606 99.9142 7.6261C100.156 7.24896 99.8571 6.77095 99.3007 6.38942C99.0262 6.2177 98.7194 6.10366 98.3991 6.05427C98.0788 6.00488 97.7518 6.02118 97.4381 6.10218C97.3128 6.12849 96.4837 6.31268 96.1231 6.43328Z" fill="#231815"/>
<path d="M82.2866 13.5464C82.2162 13.4082 81.8644 13.3644 81.3322 13.2591C79.6565 12.9039 79.0562 12.4106 77.7345 11.4655C78.2557 11.0687 78.6296 10.8406 78.9308 10.5687C79.1221 10.3977 79.3706 10.2003 79.5905 10.0008C79.8105 9.80128 80.0062 9.84733 80.0172 9.62148C80.0326 9.36055 79.6785 8.96368 79.4168 8.79046H79.4058C78.933 8.48567 78.4712 8.42428 78.2887 8.54707C78.1062 8.66986 78.1656 8.67205 78.1656 8.7466L78.1348 9.16102C78.1348 9.22899 77.9039 9.81882 77.0176 10.9919C76.7428 10.7836 75.4651 9.68726 75.0957 9.36055L74.6405 8.96368L75.0583 8.85624C75.4739 8.7466 76.7054 8.68959 76.8417 8.66109C76.9375 8.7284 77.0382 8.78851 77.143 8.84089C77.3189 8.9286 77.552 8.72248 77.6708 8.57338C77.8803 8.29971 78.0437 7.99386 78.1546 7.66781V7.65684C78.3019 7.11744 78.4602 6.40044 78.623 5.53214C78.6999 5.15938 78.7505 4.93134 78.7703 4.85679C78.8385 4.59148 79.0342 4.3744 79.1815 4.08716C79.3289 3.79992 79.4938 3.60478 79.4938 3.41401L79.408 3.27587C78.8836 2.74495 78.1899 2.41306 77.4465 2.3374L77.2991 2.35275C77.176 2.38345 77.1254 2.51282 76.9429 2.63342L76.8725 2.6992C75.8022 2.93953 74.7488 3.24936 73.7191 3.6267C73.1011 3.37235 72.5712 3.38989 72.3666 3.5083C72.1181 3.67055 72.4128 4.17706 72.4986 4.38537C72.6151 4.67918 72.7757 5.08483 72.8614 6.16801C72.8614 6.19432 72.9384 13.2175 72.9384 13.2482C72.8614 14.2612 72.857 14.4081 72.4986 14.8269C72.1401 15.2457 72.1291 14.9453 72.1973 15.3619C72.2655 15.7785 72.5843 16.8486 72.9098 16.9406C73.2353 17.0327 73.5321 16.6688 73.8312 16.3442C74.0379 16.0723 74.6031 15.5483 75.199 14.8795C76.1644 13.7963 76.5756 13.3753 76.5185 13.2087C76.4613 13.0421 76.0786 13.0947 74.1589 13.9038C74.1589 13.246 74.1765 10.8516 74.1831 9.90434C74.68 10.4306 75.1265 10.9086 75.5025 11.3296C76.1754 12.0663 77.143 13.1912 77.9501 14.0178C78.7791 14.8949 79.3245 15.101 81.4378 14.1976C81.9128 14.0003 82.3724 13.724 82.2866 13.5464ZM74.1919 5.62423H74.2029L74.1633 5.64396V4.6134C75.1673 4.26893 76.2146 4.06597 77.2749 4.01042C77.278 4.06593 77.278 4.12155 77.2749 4.17706C77.2749 4.3437 77.2617 4.6156 77.2178 5.02563C77.2002 5.19008 77.1782 5.36549 77.154 5.54968L77.132 5.52337C76.9385 5.33918 76.6922 5.05852 76.3469 5.03659C76.3513 5.01905 74.7878 5.58037 74.1919 5.62423ZM74.1919 6.7995C74.7702 6.59997 76.7692 6.3807 76.8813 6.31931C76.9468 6.28683 77.0075 6.2455 77.0616 6.19652C76.9935 6.63505 76.9077 7.11087 76.8087 7.62614C76.5576 7.58321 76.3023 7.5685 76.0479 7.58229C75.4218 7.6623 74.8017 7.78391 74.1919 7.94628V6.7995Z" fill="#231815"/>
<path d="M72.2677 12.4897C72.2325 12.3341 71.8389 12.4371 69.8201 13.3668C69.8355 12.7814 69.8597 11.5864 69.8663 11.2947L70.117 11.2158C70.8955 10.9592 71.6563 10.7246 71.7905 10.6786C71.9246 10.6325 72.1995 10.6413 72.2303 10.4199C72.2457 10.308 72.0698 10.001 71.7905 9.74012C71.6789 9.63274 71.54 9.55795 71.3888 9.52394C71.2375 9.48991 71.0798 9.49794 70.9328 9.54716C70.9328 9.54716 70.7569 9.60856 70.6712 9.64583C70.5854 9.68311 70.6206 9.67215 70.2533 9.82344C70.2533 9.82344 70.0334 9.8958 69.8817 9.955C69.8791 9.87973 69.8934 9.8048 69.9235 9.73573C69.9719 9.58444 70.0114 9.19634 70.0444 9.07793C70.0687 8.9827 70.0603 8.88208 70.0204 8.79222C69.9805 8.70237 69.9116 8.62847 69.8245 8.58238C70.3143 8.44688 70.796 8.28363 71.2671 8.09342C71.4343 8.00352 71.7751 7.9202 71.8389 7.72943C71.9026 7.53867 71.7597 7.39834 71.542 7.18784C71.4148 7.04212 71.2452 6.93952 71.0568 6.89433C70.8684 6.84916 70.6706 6.86361 70.4908 6.93568C70.1324 7.0519 69.6244 7.201 69.6244 7.201C68.846 7.45316 68.4193 7.61322 68.0301 7.73382C68.3537 7.26884 68.6426 6.78075 68.8943 6.27349C69.2945 6.38094 69.7872 6.32393 71.597 5.78233C71.8345 5.71217 72.1775 5.65077 72.2677 5.4622C72.2719 5.34794 72.2492 5.2343 72.2015 5.13036C72.1538 5.02641 72.0823 4.93506 71.9928 4.8636C71.8945 4.7507 71.7733 4.65988 71.6372 4.59715C71.5011 4.53439 71.3533 4.50115 71.2033 4.49962C70.6636 4.57643 70.1365 4.72388 69.6354 4.93815C69.601 4.95102 69.5672 4.96567 69.5342 4.98201C69.5914 4.86141 69.6508 4.73423 69.7146 4.58952C70.1874 3.55237 70.3567 3.29364 70.4491 3.20155C70.6052 2.99763 70.7283 2.92088 70.7283 2.76301C70.7283 2.60514 70.5084 2.29158 70.1588 2.04381C69.7818 1.78879 69.3556 1.61481 68.9075 1.53292C68.8015 1.51427 68.6923 1.52645 68.5931 1.568C68.4413 1.66448 68.5007 2.16221 68.4721 2.5569C68.449 2.99758 68.3676 3.4333 68.2302 3.85278C67.5375 6.17702 66.405 7.91362 64.9646 9.62829C64.6831 9.96377 64.1202 10.3826 64.4984 10.3672C64.8579 10.3061 65.2058 10.1899 65.5298 10.023C66.2201 9.6614 66.8416 9.18199 67.366 8.6065C67.4743 8.73265 67.6253 8.81461 67.7904 8.83674C67.9762 8.84601 68.1625 8.83128 68.3446 8.79288C68.3965 8.97498 68.4318 9.16138 68.4501 9.34982C68.484 9.69447 68.4994 10.0407 68.4963 10.387C67.8762 10.5602 67.1505 10.7356 66.328 10.911C66.0443 10.979 65.6837 10.9878 65.6441 11.1917C65.6221 11.3035 65.7299 11.525 66.018 11.799C66.2137 11.9876 66.5325 12.2091 66.8184 12.1762C67.1378 12.1184 67.4524 12.0371 67.7596 11.9328C67.9355 11.8692 68.3006 11.7749 68.4897 11.7135C68.4897 12.0622 68.4743 12.5029 68.4501 12.8099C68.4501 12.8099 68.4303 13.0467 68.4259 13.1168C68.3138 13.7461 68.1378 14.0816 67.8871 14.2505C67.6365 14.4193 67.5243 14.4851 67.4715 14.5947C67.4715 14.5947 67.4231 14.6342 67.4363 14.814C67.4966 15.2629 67.6295 15.6991 67.83 16.1055C67.8798 16.1959 67.947 16.2757 68.0279 16.3401C68.305 16.4563 68.5821 16.2173 68.9075 15.8555C69.1274 15.6165 69.3473 15.417 69.5342 15.2459C69.8465 14.9609 70.4139 14.4434 70.9571 13.9303C71.5002 13.4172 71.7993 13.1125 71.9312 12.9699C72.1665 12.7024 72.2985 12.6147 72.2677 12.4897Z" fill="#231815"/>
</svg>
